<svg id="Layer_1" data-name="Layer 1" xmlns="http://www.w3.org/2000/svg" width="49.151" height="34.4933" viewBox="0 0 49.151 34.4933"><defs><style>.cls-1{fill:#ff810c;}</style></defs><path d="M.4245,40.2967c.1391-.1787.2594-.3377.3843-.493a18.3767,18.3767,0,0,0,4.0711-8.65.5564.5564,0,0,0-.2605-.6473,2.3739,2.3739,0,0,1,.2541-4.0133.5157.5157,0,0,0,.3007-.4992c.0413-.786.0788-1.5738.1647-2.3557a7.2952,7.2952,0,0,1,2.0354-4.2912c.0648-.0687.1281-.1386.2342-.2537-.1456-.0616-.2554-.1163-.37-.1555-1.4805-.5041-2.9628-1.0029-4.4418-1.511a3.33,3.33,0,0,1-.8514-.3667,1.2587,1.2587,0,0,1-.4983-.6367c-.0741-.3017.19-.5357.4651-.6488.6171-.2539,1.2411-.4938,1.8725-.71q6.9306-2.3674,13.8654-4.7228c2.4751-.8429,4.9464-1.6969,7.4284-2.5187a1.564,1.564,0,0,1,.9324.0021Q33.0082,10.218,39.9928,12.65c2.8209.9752,5.6443,1.9431,8.4627,2.9256a2.9259,2.9259,0,0,1,.8171.4283.5477.5477,0,0,1-.0008.98,2.8667,2.8667,0,0,1-.8162.4325q-8.935,3.0929-17.876,6.1694c-1.4556.5021-2.9042,1.0258-4.3687,1.5a1.6463,1.6463,0,0,1-.9687,0q-7.4643-2.5227-14.9135-5.09a.5.5,0,0,0-.5492.0977,6.0444,6.0444,0,0,0-2.0759,3.3516c-.2144.9009-.2847,1.836-.4206,2.7557a.5463.5463,0,0,0,.24.5468,2.34,2.34,0,0,1,.2015,3.458.9856.9856,0,0,0-.2856.8546c.0615,1.6937.1617,3.3893.1306,5.0821a7.3651,7.3651,0,0,1-1.3453,4.3835,5.2609,5.2609,0,0,1-2.11,1.6725.5215.5215,0,0,1-.3381.0324A10.2637,10.2637,0,0,1,.4245,40.2967Z" transform="translate(-0.4245 -7.7534)"/><path d="M10.3857,23.5353c1.169.398,2.263.7705,3.3571,1.1427,3.5265,1.1994,7.0559,2.39,10.5784,3.6015,1.6861.58,1.189.5713,2.8661-.0069q6.0949-2.1012,12.19-4.2023c.8781-.3026,1.7572-.6026,2.6858-.9209.01.1765.0244.3137.0245.4509q.0031,5.3221.0024,10.6442a2.7606,2.7606,0,0,1-1.1355,2.1073,11.17,11.17,0,0,1-3.9217,2.0234,31.9115,31.9115,0,0,1-7.9121,1.4155,42.1629,42.1629,0,0,1-7.4776-.148,26.9373,26.9373,0,0,1-7.6725-1.8274,8.3246,8.3246,0,0,1-2.7329-1.7382,2.7745,2.7745,0,0,1-.8579-2.0509c.0153-3.3448.0061-6.69.0059-10.0348Z" transform="translate(-0.4245 -7.7534)"/><path class="cls-1" d="M.4245,40.2967c.1391-.1787.2594-.3377.3843-.493a18.3767,18.3767,0,0,0,4.0711-8.65.5564.5564,0,0,0-.2605-.6473,2.3739,2.3739,0,0,1,.2541-4.0133.5157.5157,0,0,0,.3007-.4992c.0413-.786.0788-1.5738.1647-2.3557a7.2952,7.2952,0,0,1,2.0354-4.2912c.0648-.0687.1281-.1386.2342-.2537-.1456-.0616-.2554-.1163-.37-.1555-1.4805-.5041-2.9628-1.0029-4.4418-1.511a3.33,3.33,0,0,1-.8514-.3667,1.2587,1.2587,0,0,1-.4983-.6367c-.0741-.3017.19-.5357.4651-.6488.6171-.2539,1.2411-.4938,1.8725-.71q6.9306-2.3674,13.8654-4.7228c2.4751-.8429,4.9464-1.6969,7.4284-2.5187a1.564,1.564,0,0,1,.9324.0021Q33.0082,10.218,39.9928,12.65c2.8209.9752,5.6443,1.9431,8.4627,2.9256a2.9259,2.9259,0,0,1,.8171.4283.5477.5477,0,0,1-.0008.98,2.8667,2.8667,0,0,1-.8162.4325q-8.935,3.0929-17.876,6.1694c-1.4556.5021-2.9042,1.0258-4.3687,1.5a1.6463,1.6463,0,0,1-.9687,0q-7.4643-2.5227-14.9135-5.09a.5.5,0,0,0-.5492.0977,6.0444,6.0444,0,0,0-2.0759,3.3516c-.2144.9009-.2847,1.836-.4206,2.7557a.5463.5463,0,0,0,.24.5468,2.34,2.34,0,0,1,.2015,3.458.9856.9856,0,0,0-.2856.8546c.0615,1.6937.1617,3.3893.1306,5.0821a7.3651,7.3651,0,0,1-1.3453,4.3835,5.2609,5.2609,0,0,1-2.11,1.6725.5215.5215,0,0,1-.3381.0324A10.2637,10.2637,0,0,1,.4245,40.2967Z" transform="translate(-0.4245 -7.7534)"/><path class="cls-1" d="M10.3857,23.5353c1.169.398,2.263.7705,3.3571,1.1427,3.5265,1.1994,7.0559,2.39,10.5784,3.6015,1.6861.58,1.189.5713,2.8661-.0069q6.0949-2.1012,12.19-4.2023c.8781-.3026,1.7572-.6026,2.6858-.9209.01.1765.0244.3137.0245.4509q.0031,5.3221.0024,10.6442a2.7606,2.7606,0,0,1-1.1355,2.1073,11.17,11.17,0,0,1-3.9217,2.0234,31.9115,31.9115,0,0,1-7.9121,1.4155,42.1629,42.1629,0,0,1-7.4776-.148,26.9373,26.9373,0,0,1-7.6725-1.8274,8.3246,8.3246,0,0,1-2.7329-1.7382,2.7745,2.7745,0,0,1-.8579-2.0509c.0153-3.3448.0061-6.69.0059-10.0348Z" transform="translate(-0.4245 -7.7534)"/></svg>