<svg id="Layer_1" data-name="Layer 1" xmlns="http://www.w3.org/2000/svg" width="35.5123" height="48.288" viewBox="0 0 35.5123 48.288"><defs><style>.cls-1{fill:#ff810c;}</style></defs><path d="M42.9929,30.8486A18.0881,18.0881,0,0,1,28.171,48.7594a17.8237,17.8237,0,0,1-17.79-8.0741,18.24,18.24,0,0,1,1.2161-21.4079,17.395,17.395,0,0,1,26.5371-.9855A18.0637,18.0637,0,0,1,42.9929,30.8486ZM12.2167,41.4066c.2912-1.2131.5958-2.31.8114-3.4249a3.6386,3.6386,0,0,1,2.1866-2.7051c1.6794-.8023,3.3521-1.6184,5.034-2.4152,1.0334-.49,1.2578-.395,1.6772.6688.91,2.3093,1.8009,4.6265,2.7345,6.9263a6.6351,6.6351,0,0,0,.7631,1.1426,5.4305,5.4305,0,0,0,.7939-1.11c.8979-2.3131,1.74-4.6478,2.6149-6.97.3832-1.0167.5982-1.1021,1.6064-.6346,1.57.7281,3.1055,1.537,4.7008,2.2033A4.31,4.31,0,0,1,37.832,38.447c.1868.9136.3543,1.8311.5411,2.8017,4.2661-4.6663,5.6036-14.5347-.3524-21.5815a16.4594,16.4594,0,0,0-23.6448-1.8683A17.3209,17.3209,0,0,0,12.2167,41.4066Z" transform="translate(-7.4876 -0.7062)"/><path d="M19.26,5h4.4314L25.18.73l.213-.0237c.3482,1.1245.7364,2.2387,1.0282,3.3776a.8527.8527,0,0,0,1.0173.7586c1.2057-.0413,2.4138-.0124,3.6209-.0124l.0957.2383c-.9478.6925-1.869,1.4266-2.8545,2.0606a.889.889,0,0,0-.4158,1.2064c.3843,1.204.7271,2.4213,1.1647,3.8954L25.4285,9.5239,21.541,12.2508c.45-1.386.784-2.535,1.2026-3.6522a.8938.8938,0,0,0-.3761-1.2218C21.39,6.6744,20.4524,5.9178,19.26,5Z" transform="translate(-7.4876 -0.7062)"/><path d="M32.2948,7.137c1.0024.5579,1.72,1.0157,2.4908,1.354a1.141,1.141,0,0,0,.9766-.1375c.6848-.5431,1.2929-1.1827,2.1135-1.9568-.1171.7533-.1907,1.2757-.2811,1.7952-.0885.5091-.194,1.0154-.2969,1.548l2.8068,1.6335.0059.2155c-.7735.1069-1.5444.2462-2.3215.31a.866.866,0,0,0-.894.8319c-.1392.8355-.3164,1.6646-.5391,2.8151-.48-.9752-.89-1.6845-1.1808-2.44-.2288-.5947-.5724-.6859-1.1324-.58a9.6555,9.6555,0,0,1-2.53.1746c.6029-.5733,1.1842-1.1719,1.8167-1.7105a.7715.7715,0,0,0,.2192-1.0949C33.1419,9.0856,32.7941,8.2461,32.2948,7.137Z" transform="translate(-7.4876 -0.7062)"/><path d="M18.0361,7.137c-1.0025.5579-1.72,1.0157-2.4909,1.354a1.141,1.141,0,0,1-.9766-.1375c-.6847-.5431-1.2929-1.1827-2.1135-1.9568.1171.7533.1908,1.2757.2811,1.7952.0885.5091.194,1.0154.2969,1.548l-2.8068,1.6335-.0059.2155c.7735.1069,1.5444.2462,2.3215.31a.866.866,0,0,1,.894.8319c.1392.8355.3164,1.6646.5392,2.8151.48-.9752.89-1.6845,1.1807-2.44.2288-.5947.5724-.6859,1.1324-.58a9.6555,9.6555,0,0,0,2.53.1746c-.6029-.5733-1.1842-1.1719-1.8167-1.7105a.7715.7715,0,0,1-.2192-1.0949C17.1889,9.0856,17.5367,8.2461,18.0361,7.137Z" transform="translate(-7.4876 -0.7062)"/><path d="M30.4324,21.9013a15.6728,15.6728,0,0,1,.5,2.21,4.5043,4.5043,0,0,1-.2307,1.8141,17.95,17.95,0,0,1-1.12,2.4525c-.9448,1.7986-2.14,3.321-4.4092,3.3744a4.0217,4.0217,0,0,1-3.19-1.8383,10.93,10.93,0,0,1-1.11-1.8313A14.8615,14.8615,0,0,1,19.8958,26a2.6907,2.6907,0,0,1-.0717-2.3295,4.228,4.228,0,0,0,.1207-2.0135,4.6581,4.6581,0,0,1,3.8507-5.2,5.4138,5.4138,0,0,1,3.55.16c.4906.2172,1.2053.514,1.31.9094.3491,1.3161,2.3983,1.5321,2.014,3.2581a5.062,5.062,0,0,0-.011,1.0761Z" transform="translate(-7.4876 -0.7062)"/><path class="cls-1" d="M42.9929,30.8486A18.0881,18.0881,0,0,1,28.171,48.7594a17.8237,17.8237,0,0,1-17.79-8.0741,18.24,18.24,0,0,1,1.2161-21.4079,17.395,17.395,0,0,1,26.5371-.9855A18.0637,18.0637,0,0,1,42.9929,30.8486ZM12.2167,41.4066c.2912-1.2131.5958-2.31.8114-3.4249a3.6386,3.6386,0,0,1,2.1866-2.7051c1.6794-.8023,3.3521-1.6184,5.034-2.4152,1.0334-.49,1.2578-.395,1.6772.6688.91,2.3093,1.8009,4.6265,2.7345,6.9263a6.6351,6.6351,0,0,0,.7631,1.1426,5.4305,5.4305,0,0,0,.7939-1.11c.8979-2.3131,1.74-4.6478,2.6149-6.97.3832-1.0167.5982-1.1021,1.6064-.6346,1.57.7281,3.1055,1.537,4.7008,2.2033A4.31,4.31,0,0,1,37.832,38.447c.1868.9136.3543,1.8311.5411,2.8017,4.2661-4.6663,5.6036-14.5347-.3524-21.5815a16.4594,16.4594,0,0,0-23.6448-1.8683A17.3209,17.3209,0,0,0,12.2167,41.4066Z" transform="translate(-7.4876 -0.7062)"/><path class="cls-1" d="M19.26,5h4.4314L25.18.73l.213-.0237c.3482,1.1245.7364,2.2387,1.0282,3.3776a.8527.8527,0,0,0,1.0173.7586c1.2057-.0413,2.4138-.0124,3.6209-.0124l.0957.2383c-.9478.6925-1.869,1.4266-2.8545,2.0606a.889.889,0,0,0-.4158,1.2064c.3843,1.204.7271,2.4213,1.1647,3.8954L25.4285,9.5239,21.541,12.2508c.45-1.386.784-2.535,1.2026-3.6522a.8938.8938,0,0,0-.3761-1.2218C21.39,6.6744,20.4524,5.9178,19.26,5Z" transform="translate(-7.4876 -0.7062)"/><path class="cls-1" d="M32.2948,7.137c1.0024.5579,1.72,1.0157,2.4908,1.354a1.141,1.141,0,0,0,.9766-.1375c.6848-.5431,1.2929-1.1827,2.1135-1.9568-.1171.7533-.1907,1.2757-.2811,1.7952-.0885.5091-.194,1.0154-.2969,1.548l2.8068,1.6335.0059.2155c-.7735.1069-1.5444.2462-2.3215.31a.866.866,0,0,0-.894.8319c-.1392.8355-.3164,1.6646-.5391,2.8151-.48-.9752-.89-1.6845-1.1808-2.44-.2288-.5947-.5724-.6859-1.1324-.58a9.6555,9.6555,0,0,1-2.53.1746c.6029-.5733,1.1842-1.1719,1.8167-1.7105a.7715.7715,0,0,0,.2192-1.0949C33.1419,9.0856,32.7941,8.2461,32.2948,7.137Z" transform="translate(-7.4876 -0.7062)"/><path class="cls-1" d="M18.0361,7.137c-1.0025.5579-1.72,1.0157-2.4909,1.354a1.141,1.141,0,0,1-.9766-.1375c-.6847-.5431-1.2929-1.1827-2.1135-1.9568.1171.7533.1908,1.2757.2811,1.7952.0885.5091.194,1.0154.2969,1.548l-2.8068,1.6335-.0059.2155c.7735.1069,1.5444.2462,2.3215.31a.866.866,0,0,1,.894.8319c.1392.8355.3164,1.6646.5392,2.8151.48-.9752.89-1.6845,1.1807-2.44.2288-.5947.5724-.6859,1.1324-.58a9.6555,9.6555,0,0,0,2.53.1746c-.6029-.5733-1.1842-1.1719-1.8167-1.7105a.7715.7715,0,0,1-.2192-1.0949C17.1889,9.0856,17.5367,8.2461,18.0361,7.137Z" transform="translate(-7.4876 -0.7062)"/><path class="cls-1" d="M30.4324,21.9013a15.6728,15.6728,0,0,1,.5,2.21,4.5043,4.5043,0,0,1-.2307,1.8141,17.95,17.95,0,0,1-1.12,2.4525c-.9448,1.7986-2.14,3.321-4.4092,3.3744a4.0217,4.0217,0,0,1-3.19-1.8383,10.93,10.93,0,0,1-1.11-1.8313A14.8615,14.8615,0,0,1,19.8958,26a2.6907,2.6907,0,0,1-.0717-2.3295,4.228,4.228,0,0,0,.1207-2.0135,4.6581,4.6581,0,0,1,3.8507-5.2,5.4138,5.4138,0,0,1,3.55.16c.4906.2172,1.2053.514,1.31.9094.3491,1.3161,2.3983,1.5321,2.014,3.2581a5.062,5.062,0,0,0-.011,1.0761Z" transform="translate(-7.4876 -0.7062)"/></svg>