<svg id="Layer_1" data-name="Layer 1" xmlns="http://www.w3.org/2000/svg" xmlns:xlink="http://www.w3.org/1999/xlink" width="60" height="60" viewBox="0 0 60 60"><defs><style>.cls-1{fill:#27aae1;}.cls-2{fill:url(#linear-gradient);}</style><linearGradient id="linear-gradient" y1="30" x2="60" y2="30" gradientUnits="userSpaceOnUse"><stop offset="0" stop-color="#f04a00"/><stop offset="1" stop-color="#ff810c"/></linearGradient></defs><path class="cls-1" d="M29.4323,31.8924l-.1059.11-.651.6472-1.7032,1.7031v1.3247h.0265l-.0265.0265v6.9753l1.1354-1.1354v-.053l.0265.0265,4.7045-4.7044.6509-.6473.4846-.4882.1891-.1892L30,31.3246Zm3.2473,3.463-.3255.3217-4.2465,4.2465V34.5682l1.2452-1.2414L30,32.6758l1.8924,1.8924Z"/><path class="cls-1" d="M46.0587,16.7533a.5864.5864,0,0,1-.06-.0757c-.2083-.246-.4164-.4845-.6322-.7191-.2119-.2309-.4277-.458-.6471-.6775-.2045-.2044-.4088-.4012-.6207-.59-.2536-.2384-.511-.4655-.7759-.6889l-.0757.0757-2.54,2.5434-.0757.072-1.1695,1.1694-1.4307,1.4345-.0983.0945L35.6771,21.647l-.3216.3255L33.921,20.5381l-1.2452-1.2452-.7834-.7834L24.3229,10.94V21.647l-7.6453-7.6453c-.246.2083-.4844.4164-.719.6322-.2309.2119-.458.4276-.6776.6471-.4465.4466-.87.9121-1.2793,1.3966a.578.578,0,0,1-.06.0757c-.1742.212-.3482.4276-.5147.6472-.1552.2081-.31.42-.458.632-.11.159-.22.318-.3255.477-.2914.4352-.5677.8856-.8213,1.3435-.1287.2271-.25.4542-.3671.6851a20.807,20.807,0,0,0-1.26,3.0391c-.0795.2461-.1552.4958-.2271.7457q-.2895,1.033-.4768,2.1005c-.0908.5222-.1627,1.0521-.2119,1.59a.7334.7334,0,0,0-.0077.0946c-.0567.6207-.087,1.2527-.087,1.8924s.03,1.2717.087,1.8924a.7349.7349,0,0,0,.0077.0946c.0492.5374.1211,1.0673.2119,1.59q.1872,1.0673.4768,2.1005c.0719.25.1476.5.2271.7456a20.8036,20.8036,0,0,0,1.26,3.0392c.1173.2309.2384.4579.3671.6851a20.1555,20.1555,0,0,0,1.1468,1.82c.3066.439.632.8667.9727,1.2793a.565.565,0,0,1,.06.0757c.2234.2648.45.5222.6889.7759.1893.2119.3861.4162.59.6207.22.2194.4467.4352.6776.6471.2346.2158.473.4239.719.6321l.0757-.0757,2.5434-2.54.0719-.0757a.5655.5655,0,0,1-.0719-.0605q-.335-.267-.6585-.5565l-.0189.0152-.6625-.6623c-.2005-.2007-.3973-.4088-.59-.6207-.2119-.2347-.4162-.4731-.6131-.7191a.56.56,0,0,1-.0605-.072c-.299-.3747-.5866-.7683-.8554-1.1694A16.9724,16.9724,0,0,1,14.63,37.3386a15.209,15.209,0,0,1-.6888-1.6615,16.3792,16.3792,0,0,1-.6473-2.3541c-.0945-.4693-.1665-.9462-.2194-1.4306l-.0114-.0947a17.1293,17.1293,0,0,1,0-3.5955l.0114-.0946c.0529-.4844.1249-.9614.2194-1.4307a16.3743,16.3743,0,0,1,.6473-2.354,15.2024,15.2024,0,0,1,.6888-1.6616c.2309-.4807.4806-.9538.7569-1.4079.1439-.2423.2953-.4807.45-.7153.0946-.1439.1968-.2876.2991-.4277.1778-.2536.3633-.5.5563-.7418l.0605.06,7.57,7.57V49.06L34.7044,38.6784l.6511-.6472.3216-.3254,2.0287-2.0287.3254-.3217-2.3541-2.3541-.3216-.3217-.7873-.7872L32.6758,30l1.8924-1.8924.7873-.7834.3216-.3255.4883-.4845,1.8658-1.8659.3217-.3254,2.2558-2.2558.0984-.0946,1.4306-1.4344,1.109-1.109.0605-.06c.2991.3746.5867.7683.8554,1.1695A16.964,16.964,0,0,1,45.37,22.6613c.1779.3671.3444.7456.492,1.1279.0682.1778.1364.3557.1968.5337.1363.3821.2612.7758.371,1.1694.1059.39.1968.7872.2763,1.1846.0946.4693.1665.9463.2194,1.4307l.0114.0946a17.1293,17.1293,0,0,1,0,3.5955l-.0114.0947c-.0529.4844-.1248.9613-.2194,1.4306-.08.3974-.17.791-.28,1.1808-.106.3974-.2271.7872-.3672,1.1733-.06.1779-.1286.3558-.1968.5336-.1476.3823-.3141.7608-.492,1.1279a16.9724,16.9724,0,0,1-1.2073,2.1233c-.2687.4011-.5563.7947-.8554,1.1694a.5516.5516,0,0,1-.0605.072c-.1817.2271-.3672.4466-.5564.6623l.0152.0151-.6623.6624a16.1841,16.1841,0,0,1-1.34,1.2036.5655.5655,0,0,1-.0719.0605l.0757.0757,2.54,2.54.0757.0757c.4844-.4088.95-.8327,1.3966-1.2792.2194-.22.4352-.4467.6471-.6776.2158-.2346.4239-.473.6322-.719a.573.573,0,0,1,.06-.0757c.3407-.4126.6662-.84.9727-1.2793a20.1555,20.1555,0,0,0,1.1468-1.82c.1287-.2272.25-.4542.3671-.6851.0644-.1249.1288-.25.1893-.3785.25-.5147.4807-1.0446.6888-1.5821.1362-.3557.265-.7152.3823-1.0786.0795-.246.1552-.4958.2271-.7456q.2895-1.0332.4768-2.1005c.0909-.5223.1628-1.0522.2119-1.59a.7349.7349,0,0,0,.0077-.0946c.0567-.6207.087-1.2527.087-1.8924s-.03-1.2717-.087-1.8924a.7334.7334,0,0,0-.0077-.0946c-.0491-.5375-.121-1.0674-.2119-1.59q-.1872-1.0674-.4768-2.1005c-.0719-.25-.1476-.5-.2271-.7457-.1173-.3633-.2461-.7228-.3823-1.0786-.2081-.5374-.439-1.0673-.6888-1.582-.06-.1288-.1249-.2537-.1893-.3785-.1173-.2309-.2384-.458-.3671-.6851a20.1431,20.1431,0,0,0-1.1468-1.8205C46.7249,17.5935,46.3994,17.1658,46.0587,16.7533ZM33.2171,28.1076l-1.2149,1.2187-.11.1059L31.3247,30l5.2987,5.2987-1.3247,1.3246-.6738.6775-.6508.6472L29.27,42.6524l-.5336.5337-.0605.0606-2.0817,2.0815-1.0976,1.0977-.0378.0378V31.8924h-.0265l.0265-.0266V28.1341l-.0265-.0265h.0265V13.5362l9.1666,9.1668.7306.73.3216.3217.9463.9462Z"/><path class="cls-1" d="M28.1341,18.4829l-.0265.0266v-.0531L26.9722,17.321v6.9753l.0265.0266h-.0265v1.3246l2.46,2.46.6244.6244.6246-.6244.053-.0492,1.1581-1.1619L34.22,24.5688l-.2459-.2459Zm3.7583,6.9488L30,27.3242l-1.8924-1.8925V20.0763l.4617.4618L30,21.9687l1.8924,1.8924.4617.4618.3255.3254Z"/><path class="cls-1" d="M38.2,54.6885a.8185.8185,0,0,0-.6818-.0588q-.3446.1078-.3156.2c.0276.088.0677.22.12.3979s.0922.31.12.3984q.0406.13.1271.3891t.1271.3911q.03.0962.388-.0161a.7953.7953,0,0,0,.5276-.4479.9992.9992,0,0,0,.0068-.7073A.9048.9048,0,0,0,38.2,54.6885Z"/><path class="cls-1" d="M40.0656,5.7044q.0649.0324.2183.0974c.0948.04.1526.0508.1724.0321a.0938.0938,0,0,0,.0166-.0284,2.2562,2.2562,0,0,0,.0672-.4349,3.2984,3.2984,0,0,0,.025-.4576q-.0852.0757-.3276.3477a2.4458,2.4458,0,0,0-.2833.3458C39.9432,5.6323,39.98,5.6651,40.0656,5.7044Z"/><path class="cls-1" d="M33.6234,4.5122a.7954.7954,0,0,0,.67-.1729,1.0019,1.0019,0,0,0,.3146-.6333.907.907,0,0,0-.139-.6748.82.82,0,0,0-.5881-.35q-.357-.0528-.3708.0422c-.0135.0911-.0359.2281-.0661.4107s-.0521.32-.0657.4109c-.013.09-.0317.2247-.0552.4052s-.0422.3164-.0557.4076Q33.2524,4.4572,33.6234,4.5122Z"/><path class="cls-1" d="M14.5935,7.894q.0609.0859.09.1287c.0045.0065.03-.0011.0753-.0224a2.1029,2.1029,0,0,0,.26-.1508q.425-.2876.1964-.6253a.42.42,0,0,0-.3771-.2232.9434.9434,0,0,0-.424.1849q-.1844.1251-.1578.1891a4.0735,4.0735,0,0,0,.2456.3883C14.5224,7.7932,14.5526,7.8367,14.5935,7.894Z"/><path class="cls-1" d="M13.3638,49.649q-.2769-.2313-.3385-.1573-.0888.1062-.27.3161c-.1209.1406-.211.2458-.27.3167s-.144.1755-.2583.3172-.2008.2479-.26.3187q-.0645.0774.2234.3177a.7973.7973,0,0,0,.6622.2011,1,1,0,0,0,.5982-.3766.905.905,0,0,0,.2326-.6484A.818.818,0,0,0,13.3638,49.649Z"/><path class="cls-1" d="M30,0A30,30,0,1,0,60,30,30,30,0,0,0,30,0ZM47.3917,8.7354q.3468-.4109.5276-.6083c.0219-.0242.0515-.0235.09.0023q.1351.0985.4161.3542.5336.4863.6771.6456a1.8,1.8,0,0,1,.4531.7935,1.4259,1.4259,0,0,1-.0536.7507,1.8,1.8,0,0,1-1.5084,1.2412,1.4441,1.4441,0,0,1-1.1333-.3891q-.1031-.0879-.5552-.5-.0852-.0774-.251-.2381t-.2506-.238c-.0338-.03-.0385-.0591-.014-.0857q.1734-.1905.5364-.5591t.5365-.5588Q47.0439,9.1464,47.3917,8.7354Zm-5.2063-.7331q.1368-.2128.4328-.63t.4339-.6323q.1454-.2269.4156-.6908t.4146-.6891c.0187-.0292.0536-.0271.1047.0057q.1147.0735.2927.1649c.0276.0143.0854.039.1724.0742a1.0851,1.0851,0,0,1,.1672.082c.0156.01.0255.0482.03.1138l.0906,1.48q.0117.2.0427.59c.0068.0619.0219.1005.0459.1156q.0256.0164.1239-.1375.1329-.2074.3766-.6386t.3781-.64c.0312-.0487.06-.0643.088-.0466.0792.0505.2.1235.3636.2188s.2849.1685.3635.219q.0375.0239-.0016.0851-.1437.225-.4515.6641t-.4526.6661l-.8328,1.3008a.0578.0578,0,0,1-.0912.0167c-.0318-.02-.08-.05-.1458-.0875s-.1141-.0675-.1453-.0878c-.0344-.0218-.0839-.0575-.149-.1065s-.1146-.0846-.1489-.1065c-.024-.0151-.0381-.0549-.0433-.1193q-.0195-.2823-.0963-1.2583-.0188-.2708-.0683-.8062a.1029.1029,0,0,0-.0145-.0425.0648.0648,0,0,0-.0438.0333q-.1461.2289-.4266.6951t-.427.695c-.0292.0461-.062.0579-.0974.0352L42.2037,8.1A.0622.0622,0,0,1,42.1854,8.0023ZM39.299,5.08q1.1335-1.2078,1.239-1.3312.06-.0711.0953-.0566c.0386.0165.0974.0454.1756.087s.1375.0709.1776.0878.0974.0383.175.0651.1354.0482.1729.0641q.0406.0171.0453.1031.01.2715-.04,1.8153-.0507,1.5536-.075,1.6118c-.0109.0257-.037.0362-.0771.0312a2.6876,2.6876,0,0,1-.4088-.1526,2.8806,2.8806,0,0,1-.39-.1849.1268.1268,0,0,1-.0521-.1364.8953.8953,0,0,0,.026-.3808,5.1014,5.1014,0,0,0-.5723-.26,1.824,1.824,0,0,0-.399-.1456.6441.6441,0,0,0-.1792.1964q-.1172.1617-.1817.1523a3.9933,3.9933,0,0,1-.5-.1909q-.33-.1394-.3037-.2021Q38.2517,6.1974,39.299,5.08Zm-6.9219-.863q.0953-.5082.1333-.7633.0391-.2664.0985-.8016t.0989-.7992c.0047-.0325.03-.0484.0755-.0482q.1672.006.5433.0618.714.1058.9218.158a1.7939,1.7939,0,0,1,.8188.406,1.4251,1.4251,0,0,1,.3745.6526,1.7993,1.7993,0,0,1-.5594,1.8716,1.4429,1.4429,0,0,1-1.1573.3094q-.1352-.0152-.74-.1052-.114-.0168-.3411-.0575t-.3412-.0579c-.0448-.0065-.0646-.0276-.0588-.0632Q32.2813,4.7253,32.3771,4.2172ZM28.7234,1.71c.1157-.0018.2891-.0015.5214.0011s.4057.0026.5213.0008q.1711-.0029.5157-.0178t.5156-.0177c.0812-.0013.1281.0284.1417.0891.0088.0359.0224.1445.0416.3263s.03.2922.03.3313a.0427.0427,0,0,1-.0463.05c-.0094,0-.0255,0-.049-.0016q-.6242-.0414-1.1208-.0333-.1242.0019-.1516.0609a.7233.7233,0,0,0-.0088.1807.3261.3261,0,0,0,.05.21.2.2,0,0,0,.1526.0419c.0156,0,.0464-.0018.0917-.0049s.0828-.005.1125-.0052q.2952-.0051.5968-.0263c.0172-.0019.0605-.0063.1292-.0139a1.0715,1.0715,0,0,1,.1261-.0111c.0375-.0008.0567.0169.0572.0528a3.4719,3.4719,0,0,0-.0364.3591q-.0156.188-.0125.3753c0,.0315-.0219.0474-.0672.0482l-.2115-.02q-.1335-.0122-.6093-.0042l-.2485.004c-.064.001-.1015.0174-.112.0487q-.0015.0117,0,.1453a.6762.6762,0,0,0,.0277.2294q.0405.0882.3015.1005l.3422-.0055q.1242-.0023.3688-.0283c.163-.0175.2848-.0269.3661-.0282q.0516-.0008.0531.0836a3.0974,3.0974,0,0,1-.0338.3709,1.4334,1.4334,0,0,1-.0693.35.0881.0881,0,0,1-.0771.0459.5606.5606,0,0,1-.07-.0058q-.1712-.0207-.9984-.0073-.18.0029-.537.0063t-.5344.0062c-.0516.0011-.0776-.0213-.0781-.0666q-.0047-.2625.0167-.7891t.0161-.7891q-.0039-.2672-.0443-.9953-.01-.1875-.0349-.56l-.0026-.0325C28.662,1.7286,28.6813,1.71,28.7234,1.71Zm-3.9052.598c-.006-.1175.0045-.1782.0308-.1821l.0328-.0023A9.4144,9.4144,0,0,0,26,2.012q.2086-.03.7638-.155l.3-.0669a.13.13,0,0,1,.0542-.0018c.0052.0031.01.0177.0159.0437.006.042.0127.1.02.1748.0086.0825.0156.1406.02.1747a1.4116,1.4116,0,0,0,.04.1682,1.359,1.359,0,0,1,.0391.1662c.0047.031-.01.0487-.0443.0536q-.0882.0129-.7033.0657.0707.589.1041.821.0395.2739.1406.82t.14.82c.0044.0294,0,.0489-.0128.0588a.2823.2823,0,0,1-.0632.0209,3.3806,3.3806,0,0,1-.4058.0773,3.2311,3.2311,0,0,1-.4224.0419.0686.0686,0,0,1-.0752-.0625q-.0394-.2737-.0951-.8247t-.095-.8245q-.0263-.1809-.1349-.8047-.457.1133-.7334.1529c-.0247.0036-.0382-.0024-.04-.0177a1.3374,1.3374,0,0,1,.0068-.1834c.0091-.1117.0135-.18.0132-.2031C24.8276,2.4547,24.8224,2.3813,24.8182,2.3076ZM21.2409,4.8854q.1011-1.6534.1034-1.8159c.0008-.0622.0133-.0968.0372-.1041q.0606-.0184.1906-.0453t.193-.0461c.04-.012.0992-.0326.176-.0615s.1349-.0492.1737-.0612c.0284-.0083.0623.0083.1011.05q.1809.2024,1.1292,1.4219.9531,1.2278.9713,1.2885c.0081.0269-.0049.0513-.0393.073a2.6747,2.6747,0,0,1-.412.1437,2.9475,2.9475,0,0,1-.4182.1068.1259.1259,0,0,1-.1268-.0719q-.1738-.3-.2232-.31a5.1022,5.1022,0,0,0-.6063.1656,1.86,1.86,0,0,0-.4.1427.646.646,0,0,0-.0127.2659q.0136.1992-.0422.2331a3.9986,3.9986,0,0,1-.5063.1724q-.3433.1035-.363.0382Q21.1488,6.4139,21.2409,4.8854Zm-4.4386.0406q.1568-.075.4745-.2169t.4742-.2167q.1543-.0741.461-.2312t.4612-.2313q.11-.0526.1661.0217.034.0437.174.2791t.1656.2886a.0426.0426,0,0,1-.0211.0646c-.0083.0041-.0234.01-.0453.0192q-.5847.2228-1.0328.4375c-.0745.0357-.112.0753-.112.1185a.73.73,0,0,0,.0675.168.33.33,0,0,0,.1333.17.2026.2026,0,0,0,.1568-.0255c.014-.0068.0408-.0211.0807-.0428s.0732-.0388.1-.0518q.2664-.1274.532-.2729l.1112-.0661a1.125,1.125,0,0,1,.11-.0633.0489.0489,0,0,1,.0742.0242A3.3129,3.3129,0,0,0,19.45,5.44a3.6947,3.6947,0,0,0,.1453.3463c.0133.0281,0,.0521-.0411.0716l-.2.07q-.1266.0449-.5557.25l-.2242.1073q-.0864.0418-.081.0909.0027.0117.0606.132a.692.692,0,0,0,.12.1972q.0741.0632.3161-.0344l.3086-.1479q.112-.0536.3232-.18t.3213-.1784c.031-.0149.0586.0031.0828.0536a3.0236,3.0236,0,0,1,.124.3513,1.4013,1.4013,0,0,1,.0833.3474.0868.0868,0,0,1-.05.0735.5966.5966,0,0,1-.0664.0242q-.1644.0526-.9107.41-.1624.0778-.4849.23t-.483.2289q-.07.0333-.099-.0281-.1137-.2367-.3143-.7237T17.51,6.4089q-.1157-.2411-.4558-.8862-.0875-.1661-.2653-.4941L16.7729,5C16.7544,4.969,16.7643,4.9443,16.8023,4.926ZM13.1417,7.2521q.055-.0543.5773-.4248.354-.25.5672-.395a1.4658,1.4658,0,0,1,.8576-.2888A.9044.9044,0,0,1,15.9,6.58a1.266,1.266,0,0,1,.2245.5075,1.1122,1.1122,0,0,1-.0787.5315c-.0158.0409-.0177.07-.0054.0886q-.0012-.0019.5666.3268a4.2677,4.2677,0,0,1,.6019.3794c.0062.0092-.0024.0245-.0256.0459a4.1047,4.1047,0,0,1-.363.2625,3.9594,3.9594,0,0,1-.3534.2221.2408.2408,0,0,1-.0549.0232.1053.1053,0,0,1-.0537-.0206c-.0533-.0372-.1328-.093-.2377-.1674q-.207-.1426-.6242-.4123a.2032.2032,0,0,0-.2092.0224c-.012.01-.08.057-.2057.1422q-.0293.02.0378.1188.0894.132.2909.3776t.2908.3776c.0151.0221.018.039.0089.0507l-.0516.0407q-.1094.085-.352.2495a3.117,3.117,0,0,1-.3417.2143.072.072,0,0,1-.0971-.0222q-.1441-.2136-.4157-.6583t-.4169-.66q-.5559-.8211-.9039-1.2563l-.02-.0258C13.0945,7.3169,13.105,7.2883,13.1417,7.2521ZM10.8693,9.0276A1.54,1.54,0,0,1,12.06,8.56a.1456.1456,0,0,1,.0967.0352,1.4719,1.4719,0,0,1,.1052.3531,1.9123,1.9123,0,0,1,.0677.3747.0638.0638,0,0,1-.0216.0459.6318.6318,0,0,1-.15.0106,1.2375,1.2375,0,0,0-.3015.04.8376.8376,0,0,0-.3456.1924.67.67,0,0,0-.2289.5635.92.92,0,0,0,.2622.5623.9375.9375,0,0,0,.5456.3094.6643.6643,0,0,0,.5823-.1821.8721.8721,0,0,0,.2232-.3281,1.1889,1.1889,0,0,0,.0671-.2859.6065.6065,0,0,1,.0237-.1435.0659.0659,0,0,1,.0521-.013q.0559.0054.3487.0763a1.7276,1.7276,0,0,1,.32.0934.1776.1776,0,0,1,.0307.1058,1.4213,1.4213,0,0,1-.4916,1.1554,1.53,1.53,0,0,1-1.2091.44,1.7325,1.7325,0,0,1-1.1534-.5927,1.7762,1.7762,0,0,1-.5042-1.1818A1.4579,1.4579,0,0,1,10.8693,9.0276Zm2.1648,43.0839a1.4434,1.4434,0,0,1-1.1489-.3386q-.1075-.0836-.5771-.4755-.0883-.0735-.261-.2266c-.1151-.1021-.202-.1781-.2609-.227-.0349-.0287-.0406-.0573-.0177-.0849q.1652-.1977.5115-.5818t.5114-.5823q.1727-.207.5018-.6328t.5006-.6308c.021-.0255.0507-.026.09-.0015a5.41,5.41,0,0,1,.4315.3354q.5544.4624.7047.6151a1.7932,1.7932,0,0,1,.4875.7729,1.4235,1.4235,0,0,1-.02.7521,1.8,1.8,0,0,1-1.4529,1.3063Zm4.8852.3166q-.12.2469-.15.2969a.0423.0423,0,0,1-.0653.0182c-.0081-.0052-.0219-.014-.0412-.0276q-.5077-.3648-.9338-.6208-.1066-.064-.161-.0281a.7405.7405,0,0,0-.1028.1484.33.33,0,0,0-.0683.2052c.0073.0391.0433.0781.1076.1167.0133.0078.04.0229.08.0437s.0727.04.0982.0552q.2531.1517.5208.2938c.0156.0073.0544.026.1167.0562a1.1488,1.1488,0,0,1,.1133.0568.0491.0491,0,0,1,.02.0755,3.325,3.325,0,0,0-.2208.2854c-.075.1011-.1448.2047-.2091.312-.0162.0266-.0435.0287-.0823.0052l-.169-.1286q-.1071-.0813-.5151-.3261l-.213-.1276c-.055-.0328-.0951-.039-.1206-.0177q-.0082.0087-.0768.1235a.6874.6874,0,0,0-.0982.2088q-.0117.0969.2031.2448-.0044-.0022.2932.1761.1067.064.3279.1713c.1477.0708.2563.1276.326.1693.03.0177.03.051.0008.0989a3.0044,3.0044,0,0,1-.2247.2969,1.42,1.42,0,0,1-.244.261.0882.0882,0,0,1-.0893-.0016.6145.6145,0,0,1-.0568-.0422q-.1344-.1086-.8438-.5339-.1551-.0928-.4591-.2786t-.4568-.2771c-.0442-.0265-.0546-.0588-.0315-.0979q.1351-.225.4313-.6609t.431-.6615q.1374-.2289.4885-.8682.0906-.1641.2664-.4938l.0149-.0291c.0159-.0323.0419-.0375.0778-.0162q.1488.09.4425.2766t.4422.2765q.1464.0883.4468.2573t.4469.2573c.07.0422.0943.0922.0735.1511Q18.0386,52.1816,17.9193,52.4281Zm2.5393,1.375a.036.036,0,0,1-.0544.02.4819.4819,0,0,1-.0552-.0318.5034.5034,0,0,0-.0594-.0338.5525.5525,0,0,0-.3016-.0474.2749.2749,0,0,0-.2393.1661.615.615,0,0,0,.0135.39q.1224.4626.1276.4855a.9426.9426,0,0,1-.0533.5369,1.0367,1.0367,0,0,1-.6943.5865,1.7168,1.7168,0,0,1-.937.0068l-.0289-.01q-.0492-.0219-.0867-.3979a1.4182,1.4182,0,0,1-.0086-.4422c.007-.0162.0221-.0214.0456-.0162a2.49,2.49,0,0,0,.4648.06.3874.3874,0,0,0,.368-.2328.5533.5533,0,0,0-.01-.3755c-.0836-.2682-.1278-.4167-.1328-.4443a.9549.9549,0,0,1,.068-.5588.8482.8482,0,0,1,.6487-.4938,1.7813,1.7813,0,0,1,.85.04l.0375.0141c.0216.0094.0312.0338.0289.0739q-.0129.1813.0117.6808A.0524.0524,0,0,1,20.4586,53.8031Zm2.1469.9563q-.1782.47-.2542.7088-.084.2632-.2393.7969t-.2391.7974c-.01.03-.0221.0458-.038.049a.5069.5069,0,0,1-.0609-.0094,3.5,3.5,0,0,1-.3943-.1057,2.9672,2.9672,0,0,1-.41-.1506.0714.0714,0,0,1-.0428-.0895q-.0113.0351.1454-.387.3285-.8915.419-1.175.0762-.2391.2127-.7219t.2128-.7219a.0466.0466,0,0,1,.0669-.0328c.0464.0151.1151.0391.2068.0734s.16.0584.2068.0735.1148.0338.2062.0583.16.0438.2065.0584c.0432.0135.06.0369.0492.07Q22.7836,54.29,22.6055,54.7594Zm4.1565,2.0614c-.0349.1474-.0591.2584-.0724.3323q-.0531.2977-.1151.8985l-.0024.0255c-.0044.0422-.0294.0594-.0757.051a1.7816,1.7816,0,0,1-.2435-.0958c-.1331-.0589-.2149-.0974-.2448-.1151a2.5847,2.5847,0,0,1-.9591.0239,1.5756,1.5756,0,0,1-1.0849-.6843,1.6607,1.6607,0,0,1-.2407-1.2646,1.7635,1.7635,0,0,1,.655-1.1354,1.5374,1.5374,0,0,1,1.2635-.2886,1.6722,1.6722,0,0,1,.636.2521,1.2686,1.2686,0,0,1,.4518.5089.1827.1827,0,0,1,.0253.0854q-.0133.0742-.2657.2943t-.3125.21a.4594.4594,0,0,1-.0893-.1135.9912.9912,0,0,0-.1992-.2167.8212.8212,0,0,0-.3708-.164.6729.6729,0,0,0-.5954.16.9375.9375,0,0,0-.295.5594.8731.8731,0,0,0,.09.63.7433.7433,0,0,0,.5341.3286,1.4409,1.4409,0,0,0,.5472-.0234q.0066-.0774.0276-.3953a3.2931,3.2931,0,0,1,.0393-.3927c.0052-.0292.0182-.0453.0393-.048a.1133.1133,0,0,1,.0378.0021q.0667.0117.2.0485c.0883.025.1558.0411.2019.05.0492.0088.1237.0182.2234.0291s.1739.02.2232.0292c.0385.0068.0531.0354.0442.0864C26.8214,56.5625,26.7971,56.6729,26.762,56.8208Zm4.589-.8958q-.0312.5352-.0354.8042l-.025,1.5448c-.001.0421-.0239.0625-.0692.0619-.0375-.0005-.0943,0-.17.0021s-.1328.0021-.17.0016c-.0407,0-.1011-.0047-.1823-.012s-.1422-.012-.1829-.0125c-.0281-.0005-.0614-.0271-.0994-.0792q-.1649-.23-.7427-1.02-.1587-.22-.4818-.65a.0987.0987,0,0,0-.0349-.0286.0633.0633,0,0,0-.0193.051q-.0047.2719.0016.8157t.0021.8161c-.0006.0547-.0224.0813-.0646.0807l-.811-.013c-.0453-.001-.0671-.0255-.0666-.0739q.0039-.2532.037-.7636t.0369-.7656q.0048-.27-.0088-.8068t-.0094-.8041q.0008-.0516.0922-.05c.0906.0015.2026-.0032.3354-.0136.0313-.0026.0932-.0114.186-.0271a1.1116,1.1116,0,0,1,.1854-.0182c.0187.0005.0468.0276.0854.0813l.8547,1.2114q.114.1641.3458.4792c.0385.0489.0714.0739.0995.0745.02,0,.0318-.0605.0338-.1823q.0039-.2462-.0151-.7412t-.0151-.7432c.0011-.0578.0183-.0865.0511-.0859q.1406.0022.4239-.0047c.1891-.0047.3308-.0068.4245-.0052.03.0005.0443.025.0432.0734Q31.382,55.39,31.351,55.925Zm4.0021,1.8969a.0861.0861,0,0,1-.07.0552.5226.5226,0,0,1-.0708.0036q-.1726.0024-.9906.1245c-.1193.0177-.2964.0438-.5313.0771s-.4114.0594-.5286.0766c-.0511.0078-.08-.011-.087-.0558-.0255-.1729-.0552-.4344-.0875-.7843s-.062-.611-.0875-.7839q-.04-.2649-.1755-.9813-.0343-.1844-.1084-.55l-.0067-.0322c-.0089-.0349.0078-.0558.05-.062q.1718-.0258.5171-.0677t.5172-.0683c.1131-.0166.2823-.0453.5089-.0854s.3958-.0687.5083-.0854c.08-.012.1313.0109.1526.07q.0195.0516.0844.3177t.0734.3245a.0428.0428,0,0,1-.039.0557c-.0094.0011-.0255.0031-.049.0047q-.6242.0414-1.1156.1146c-.0823.0125-.1292.04-.1422.0807a.7448.7448,0,0,0,.0151.18.33.33,0,0,0,.0776.2016.2021.2021,0,0,0,.1573.0219c.0156-.0026.0453-.0084.09-.0172s.0813-.0157.11-.02q.2922-.0438.5886-.1047c.0172-.0037.0588-.0141.126-.03a1.1647,1.1647,0,0,1,.1234-.0282.049.049,0,0,1,.0641.0448,3.2989,3.2989,0,0,0,.0109.361q.0095.1882.037.3734c.0047.0313-.0151.05-.06.0568l-.212.0078c-.089.0042-.2911.0292-.6047.0766l-.2458.0364c-.063.0094-.0979.0307-.1042.063,0,.0078.0063.0563.0193.1443a.6845.6845,0,0,0,.0573.2234c.0349.0547.1391.075.312.06q-.0047.0009.3385-.05.1227-.018.362-.0765c.1589-.0391.2792-.0641.3594-.0766.0338-.0047.0552.02.0635.076a3.0162,3.0162,0,0,1,.0151.3724A1.4066,1.4066,0,0,1,35.3531,57.8219ZM39.4109,56.24a1.4444,1.4444,0,0,1-.9062.7828q-.1288.0453-.7125.2281-.1094.0344-.3318.0969t-.3318.0969q-.0648.02-.0812-.0313c-.051-.164-.1224-.4125-.2125-.7453s-.1615-.5807-.213-.7448q-.0806-.2569-.26-.7646t-.26-.7619c-.01-.0318.0057-.0568.0474-.0766q.153-.0672.5151-.1813.6889-.2156.8989-.2593a1.7939,1.7939,0,0,1,.9136.0078,1.4244,1.4244,0,0,1,.6218.4239,1.8,1.8,0,0,1,.3125,1.9287Zm6.25-2.9781a1.4437,1.4437,0,0,1-.7474.8421c-.0333.0209-.0817.05-.1453.0865-.0635.04-.1109.0688-.1416.0875a8.0748,8.0748,0,0,1-.8948.5089.0716.0716,0,0,1-.0959-.0266q-.1313-.2133-.3729-.662t-.3739-.664q-.1422-.232-.5594-.8558-.1062-.16-.324-.4776l-.0192-.0271c-.0167-.0244-.0052-.0526.0349-.0843s.1921-.1292.4573-.2922q.6366-.3915.7473-.4542a1.8222,1.8222,0,0,1,.823-.2859.8124.8124,0,0,1,.7031.451.6128.6128,0,0,1,.0818.2938,1.2459,1.2459,0,0,1-.02.2708.599.599,0,0,1-.027.1213c.0057.0094.0317.0136.0786.012a.63.63,0,0,1,.3755.1188.9068.9068,0,0,1,.2756.287A.9937.9937,0,0,1,45.6609,53.2615Zm2.9553-1.9256a3.4918,3.4918,0,0,1-.3125.2839,4.0638,4.0638,0,0,1-.34.27A.0654.0654,0,0,1,47.87,51.88q-.08-.0945-.2286-.3026t-.23-.3042a.3021.3021,0,0,0-.1474-.0864q-.4757-.1227-1.413-.4125a.3149.3149,0,0,1-.138-.0792q-.0913-.1079-.2838-.313c-.1282-.137-.223-.2412-.2834-.3125-.0333-.04-.038-.0693-.0146-.0891.073-.0619.1855-.1526.3386-.2718s.2661-.2105.34-.273c.0271-.0234.0484-.026.0635-.0078q.0774.0906.225.2808t.2245.2812a1.03,1.03,0,0,0,.3849.1349c.1781.0411.32.07.425.0849q.0008-.1476-.0234-.4229a1.1238,1.1238,0,0,0-.0662-.3891q-.0758-.09-.2427-.26t-.2432-.2594c-.0214-.025-.0281-.0437-.02-.0562l.0448-.038c.0713-.06.176-.1552.314-.2834s.2438-.2234.3162-.2849c.0239-.02.0578-.0046.101.0464q.0806.0945.2453.2823t.2469.2838a.3875.3875,0,0,1,.0854.1579,7.7271,7.7271,0,0,1,.188,1.5156.306.306,0,0,0,.0578.1844q.0805.0945.2516.275t.25.2734c.0183.0214.0245.0385.0188.0516A.4756.4756,0,0,1,48.6162,51.3359ZM30,53.3333A23.3333,23.3333,0,1,1,53.3333,30,23.3333,23.3333,0,0,1,30,53.3333Z"/><path class="cls-1" d="M47.1953,10.8448a.7971.7971,0,0,0,.6526.23,1,1,0,0,0,.6146-.35.9035.9035,0,0,0,.26-.6375.8171.8171,0,0,0-.2922-.6184c-.1776-.1623-.2885-.22-.3312-.1722-.0625.0682-.1568.17-.2839.3042s-.2218.2362-.2838.3044-.1516.1688-.2719.3055-.212.2388-.274.307Q46.918,10.5923,47.1953,10.8448Z"/><path class="cls-1" d="M22.23,4.876q.0707-.0164.23-.0645.148-.0446.1529-.0855a.0876.0876,0,0,0-.005-.0325,2.2655,2.2655,0,0,0-.2263-.3774,3.4094,3.4094,0,0,0-.2726-.3682q-.0177.113-.03.4766a2.4165,2.4165,0,0,0,.0029.4474C22.09,4.8987,22.1391,4.9,22.23,4.876Z"/><path class="cls-1" d="M44.4135,52.8432a1.0247,1.0247,0,0,0-.3364.1516,1.1036,1.1036,0,0,0-.2677.1906.7322.7322,0,0,0,.1286.2583c.0964.1568.1584.2386.186.2443a.9035.9035,0,0,0,.3031-.1515,1.0926,1.0926,0,0,0,.2823-.2209.2643.2643,0,0,0,.0036-.3208A.2826.2826,0,0,0,44.4135,52.8432Z"/><path class="cls-1" d="M43.9667,51.9156a.2611.2611,0,0,0-.3115-.1224,1.3646,1.3646,0,0,0-.3338.1641q-.2157.1328-.1964.1646c.0156.0255.037.0651.0641.1192s.0479.0938.0635.1188c.0818.1333.1386.201.1714.2031a.9975.9975,0,0,0,.2645-.138Q44.1175,52.161,43.9667,51.9156Z"/><path class="cls-2" d="M29.4323,31.8924l-.1059.11-.651.6472-1.7032,1.7031v1.3247h.0265l-.0265.0265v6.9753l1.1354-1.1354v-.053l.0265.0265,4.7045-4.7044.6509-.6473.4846-.4882.1891-.1892L30,31.3246Zm3.2473,3.463-.3255.3217-4.2465,4.2465V34.5682l1.2452-1.2414L30,32.6758l1.8924,1.8924Z"/><path class="cls-2" d="M46.0587,16.7533a.5864.5864,0,0,1-.06-.0757c-.2083-.246-.4164-.4845-.6322-.7191-.2119-.2309-.4277-.458-.6471-.6775-.2045-.2044-.4088-.4012-.6207-.59-.2536-.2384-.511-.4655-.7759-.6889l-.0757.0757-2.54,2.5434-.0757.072-1.1695,1.1694-1.4307,1.4345-.0983.0945L35.6771,21.647l-.3216.3255L33.921,20.5381l-1.2452-1.2452-.7834-.7834L24.3229,10.94V21.647l-7.6453-7.6453c-.246.2083-.4844.4164-.719.6322-.2309.2119-.458.4276-.6776.6471-.4465.4466-.87.9121-1.2793,1.3966a.578.578,0,0,1-.06.0757c-.1742.212-.3482.4276-.5147.6472-.1552.2081-.31.42-.458.632-.11.159-.22.318-.3255.477-.2914.4352-.5677.8856-.8213,1.3435-.1287.2271-.25.4542-.3671.6851a20.807,20.807,0,0,0-1.26,3.0391c-.0795.2461-.1552.4958-.2271.7457q-.2895,1.033-.4768,2.1005c-.0908.5222-.1627,1.0521-.2119,1.59a.7334.7334,0,0,0-.0077.0946c-.0567.6207-.087,1.2527-.087,1.8924s.03,1.2717.087,1.8924a.7349.7349,0,0,0,.0077.0946c.0492.5374.1211,1.0673.2119,1.59q.1872,1.0673.4768,2.1005c.0719.25.1476.5.2271.7456a20.8036,20.8036,0,0,0,1.26,3.0392c.1173.2309.2384.4579.3671.6851a20.1555,20.1555,0,0,0,1.1468,1.82c.3066.439.632.8667.9727,1.2793a.565.565,0,0,1,.06.0757c.2234.2648.45.5222.6889.7759.1893.2119.3861.4162.59.6207.22.2194.4467.4352.6776.6471.2346.2158.473.4239.719.6321l.0757-.0757,2.5434-2.54.0719-.0757a.5655.5655,0,0,1-.0719-.0605q-.335-.267-.6585-.5565l-.0189.0152-.6625-.6623c-.2005-.2007-.3973-.4088-.59-.6207-.2119-.2347-.4162-.4731-.6131-.7191a.56.56,0,0,1-.0605-.072c-.299-.3747-.5866-.7683-.8554-1.1694A16.9724,16.9724,0,0,1,14.63,37.3386a15.209,15.209,0,0,1-.6888-1.6615,16.3792,16.3792,0,0,1-.6473-2.3541c-.0945-.4693-.1665-.9462-.2194-1.4306l-.0114-.0947a17.1293,17.1293,0,0,1,0-3.5955l.0114-.0946c.0529-.4844.1249-.9614.2194-1.4307a16.3743,16.3743,0,0,1,.6473-2.354,15.2024,15.2024,0,0,1,.6888-1.6616c.2309-.4807.4806-.9538.7569-1.4079.1439-.2423.2953-.4807.45-.7153.0946-.1439.1968-.2876.2991-.4277.1778-.2536.3633-.5.5563-.7418l.0605.06,7.57,7.57V49.06L34.7044,38.6784l.6511-.6472.3216-.3254,2.0287-2.0287.3254-.3217-2.3541-2.3541-.3216-.3217-.7873-.7872L32.6758,30l1.8924-1.8924.7873-.7834.3216-.3255.4883-.4845,1.8658-1.8659.3217-.3254,2.2558-2.2558.0984-.0946,1.4306-1.4344,1.109-1.109.0605-.06c.2991.3746.5867.7683.8554,1.1695A16.964,16.964,0,0,1,45.37,22.6613c.1779.3671.3444.7456.492,1.1279.0682.1778.1364.3557.1968.5337.1363.3821.2612.7758.371,1.1694.1059.39.1968.7872.2763,1.1846.0946.4693.1665.9463.2194,1.4307l.0114.0946a17.1293,17.1293,0,0,1,0,3.5955l-.0114.0947c-.0529.4844-.1248.9613-.2194,1.4306-.08.3974-.17.791-.28,1.1808-.106.3974-.2271.7872-.3672,1.1733-.06.1779-.1286.3558-.1968.5336-.1476.3823-.3141.7608-.492,1.1279a16.9724,16.9724,0,0,1-1.2073,2.1233c-.2687.4011-.5563.7947-.8554,1.1694a.5516.5516,0,0,1-.0605.072c-.1817.2271-.3672.4466-.5564.6623l.0152.0151-.6623.6624a16.1841,16.1841,0,0,1-1.34,1.2036.5655.5655,0,0,1-.0719.0605l.0757.0757,2.54,2.54.0757.0757c.4844-.4088.95-.8327,1.3966-1.2792.2194-.22.4352-.4467.6471-.6776.2158-.2346.4239-.473.6322-.719a.573.573,0,0,1,.06-.0757c.3407-.4126.6662-.84.9727-1.2793a20.1555,20.1555,0,0,0,1.1468-1.82c.1287-.2272.25-.4542.3671-.6851.0644-.1249.1288-.25.1893-.3785.25-.5147.4807-1.0446.6888-1.5821.1362-.3557.265-.7152.3823-1.0786.0795-.246.1552-.4958.2271-.7456q.2895-1.0332.4768-2.1005c.0909-.5223.1628-1.0522.2119-1.59a.7349.7349,0,0,0,.0077-.0946c.0567-.6207.087-1.2527.087-1.8924s-.03-1.2717-.087-1.8924a.7334.7334,0,0,0-.0077-.0946c-.0491-.5375-.121-1.0674-.2119-1.59q-.1872-1.0674-.4768-2.1005c-.0719-.25-.1476-.5-.2271-.7457-.1173-.3633-.2461-.7228-.3823-1.0786-.2081-.5374-.439-1.0673-.6888-1.582-.06-.1288-.1249-.2537-.1893-.3785-.1173-.2309-.2384-.458-.3671-.6851a20.1431,20.1431,0,0,0-1.1468-1.8205C46.7249,17.5935,46.3994,17.1658,46.0587,16.7533ZM33.2171,28.1076l-1.2149,1.2187-.11.1059L31.3247,30l5.2987,5.2987-1.3247,1.3246-.6738.6775-.6508.6472L29.27,42.6524l-.5336.5337-.0605.0606-2.0817,2.0815-1.0976,1.0977-.0378.0378V31.8924h-.0265l.0265-.0266V28.1341l-.0265-.0265h.0265V13.5362l9.1666,9.1668.7306.73.3216.3217.9463.9462Z"/><path class="cls-2" d="M28.1341,18.4829l-.0265.0266v-.0531L26.9722,17.321v6.9753l.0265.0266h-.0265v1.3246l2.46,2.46.6244.6244.6246-.6244.053-.0492,1.1581-1.1619L34.22,24.5688l-.2459-.2459Zm3.7583,6.9488L30,27.3242l-1.8924-1.8925V20.0763l.4617.4618L30,21.9687l1.8924,1.8924.4617.4618.3255.3254Z"/><path class="cls-2" d="M38.2,54.6885a.8185.8185,0,0,0-.6818-.0588q-.3446.1078-.3156.2c.0276.088.0677.22.12.3979s.0922.31.12.3984q.0406.13.1271.3891t.1271.3911q.03.0962.388-.0161a.7953.7953,0,0,0,.5276-.4479.9992.9992,0,0,0,.0068-.7073A.9048.9048,0,0,0,38.2,54.6885Z"/><path class="cls-2" d="M40.0656,5.7044q.0649.0324.2183.0974c.0948.04.1526.0508.1724.0321a.0938.0938,0,0,0,.0166-.0284,2.2562,2.2562,0,0,0,.0672-.4349,3.2984,3.2984,0,0,0,.025-.4576q-.0852.0757-.3276.3477a2.4458,2.4458,0,0,0-.2833.3458C39.9432,5.6323,39.98,5.6651,40.0656,5.7044Z"/><path class="cls-2" d="M33.6234,4.5122a.7954.7954,0,0,0,.67-.1729,1.0019,1.0019,0,0,0,.3146-.6333.907.907,0,0,0-.139-.6748.82.82,0,0,0-.5881-.35q-.357-.0528-.3708.0422c-.0135.0911-.0359.2281-.0661.4107s-.0521.32-.0657.4109c-.013.09-.0317.2247-.0552.4052s-.0422.3164-.0557.4076Q33.2524,4.4572,33.6234,4.5122Z"/><path class="cls-2" d="M14.5935,7.894q.0609.0859.09.1287c.0045.0065.03-.0011.0753-.0224a2.1029,2.1029,0,0,0,.26-.1508q.425-.2876.1964-.6253a.42.42,0,0,0-.3771-.2232.9434.9434,0,0,0-.424.1849q-.1844.1251-.1578.1891a4.0735,4.0735,0,0,0,.2456.3883C14.5224,7.7932,14.5526,7.8367,14.5935,7.894Z"/><path class="cls-2" d="M13.3638,49.649q-.2769-.2313-.3385-.1573-.0888.1062-.27.3161c-.1209.1406-.211.2458-.27.3167s-.144.1755-.2583.3172-.2008.2479-.26.3187q-.0645.0774.2234.3177a.7973.7973,0,0,0,.6622.2011,1,1,0,0,0,.5982-.3766.905.905,0,0,0,.2326-.6484A.818.818,0,0,0,13.3638,49.649Z"/><path class="cls-2" d="M30,0A30,30,0,1,0,60,30,30,30,0,0,0,30,0ZM47.3917,8.7354q.3468-.4109.5276-.6083c.0219-.0242.0515-.0235.09.0023q.1351.0985.4161.3542.5336.4863.6771.6456a1.8,1.8,0,0,1,.4531.7935,1.4259,1.4259,0,0,1-.0536.7507,1.8,1.8,0,0,1-1.5084,1.2412,1.4441,1.4441,0,0,1-1.1333-.3891q-.1031-.0879-.5552-.5-.0852-.0774-.251-.2381t-.2506-.238c-.0338-.03-.0385-.0591-.014-.0857q.1734-.1905.5364-.5591t.5365-.5588Q47.0439,9.1464,47.3917,8.7354Zm-5.2063-.7331q.1368-.2128.4328-.63t.4339-.6323q.1454-.2269.4156-.6908t.4146-.6891c.0187-.0292.0536-.0271.1047.0057q.1147.0735.2927.1649c.0276.0143.0854.039.1724.0742a1.0851,1.0851,0,0,1,.1672.082c.0156.01.0255.0482.03.1138l.0906,1.48q.0117.2.0427.59c.0068.0619.0219.1005.0459.1156q.0256.0164.1239-.1375.1329-.2074.3766-.6386t.3781-.64c.0312-.0487.06-.0643.088-.0466.0792.0505.2.1235.3636.2188s.2849.1685.3635.219q.0375.0239-.0016.0851-.1437.225-.4515.6641t-.4526.6661l-.8328,1.3008a.0578.0578,0,0,1-.0912.0167c-.0318-.02-.08-.05-.1458-.0875s-.1141-.0675-.1453-.0878c-.0344-.0218-.0839-.0575-.149-.1065s-.1146-.0846-.1489-.1065c-.024-.0151-.0381-.0549-.0433-.1193q-.0195-.2823-.0963-1.2583-.0188-.2708-.0683-.8062a.1029.1029,0,0,0-.0145-.0425.0648.0648,0,0,0-.0438.0333q-.1461.2289-.4266.6951t-.427.695c-.0292.0461-.062.0579-.0974.0352L42.2037,8.1A.0622.0622,0,0,1,42.1854,8.0023ZM39.299,5.08q1.1335-1.2078,1.239-1.3312.06-.0711.0953-.0566c.0386.0165.0974.0454.1756.087s.1375.0709.1776.0878.0974.0383.175.0651.1354.0482.1729.0641q.0406.0171.0453.1031.01.2715-.04,1.8153-.0507,1.5536-.075,1.6118c-.0109.0257-.037.0362-.0771.0312a2.6876,2.6876,0,0,1-.4088-.1526,2.8806,2.8806,0,0,1-.39-.1849.1268.1268,0,0,1-.0521-.1364.8953.8953,0,0,0,.026-.3808,5.1014,5.1014,0,0,0-.5723-.26,1.824,1.824,0,0,0-.399-.1456.6441.6441,0,0,0-.1792.1964q-.1172.1617-.1817.1523a3.9933,3.9933,0,0,1-.5-.1909q-.33-.1394-.3037-.2021Q38.2517,6.1974,39.299,5.08Zm-6.9219-.863q.0953-.5082.1333-.7633.0391-.2664.0985-.8016t.0989-.7992c.0047-.0325.03-.0484.0755-.0482q.1672.006.5433.0618.714.1058.9218.158a1.7939,1.7939,0,0,1,.8188.406,1.4251,1.4251,0,0,1,.3745.6526,1.7993,1.7993,0,0,1-.5594,1.8716,1.4429,1.4429,0,0,1-1.1573.3094q-.1352-.0152-.74-.1052-.114-.0168-.3411-.0575t-.3412-.0579c-.0448-.0065-.0646-.0276-.0588-.0632Q32.2813,4.7253,32.3771,4.2172ZM28.7234,1.71c.1157-.0018.2891-.0015.5214.0011s.4057.0026.5213.0008q.1711-.0029.5157-.0178t.5156-.0177c.0812-.0013.1281.0284.1417.0891.0088.0359.0224.1445.0416.3263s.03.2922.03.3313a.0427.0427,0,0,1-.0463.05c-.0094,0-.0255,0-.049-.0016q-.6242-.0414-1.1208-.0333-.1242.0019-.1516.0609a.7233.7233,0,0,0-.0088.1807.3261.3261,0,0,0,.05.21.2.2,0,0,0,.1526.0419c.0156,0,.0464-.0018.0917-.0049s.0828-.005.1125-.0052q.2952-.0051.5968-.0263c.0172-.0019.0605-.0063.1292-.0139a1.0715,1.0715,0,0,1,.1261-.0111c.0375-.0008.0567.0169.0572.0528a3.4719,3.4719,0,0,0-.0364.3591q-.0156.188-.0125.3753c0,.0315-.0219.0474-.0672.0482l-.2115-.02q-.1335-.0122-.6093-.0042l-.2485.004c-.064.001-.1015.0174-.112.0487q-.0015.0117,0,.1453a.6762.6762,0,0,0,.0277.2294q.0405.0882.3015.1005l.3422-.0055q.1242-.0023.3688-.0283c.163-.0175.2848-.0269.3661-.0282q.0516-.0008.0531.0836a3.0974,3.0974,0,0,1-.0338.3709,1.4334,1.4334,0,0,1-.0693.35.0881.0881,0,0,1-.0771.0459.5606.5606,0,0,1-.07-.0058q-.1712-.0207-.9984-.0073-.18.0029-.537.0063t-.5344.0062c-.0516.0011-.0776-.0213-.0781-.0666q-.0047-.2625.0167-.7891t.0161-.7891q-.0039-.2672-.0443-.9953-.01-.1875-.0349-.56l-.0026-.0325C28.662,1.7286,28.6813,1.71,28.7234,1.71Zm-3.9052.598c-.006-.1175.0045-.1782.0308-.1821l.0328-.0023A9.4144,9.4144,0,0,0,26,2.012q.2086-.03.7638-.155l.3-.0669a.13.13,0,0,1,.0542-.0018c.0052.0031.01.0177.0159.0437.006.042.0127.1.02.1748.0086.0825.0156.1406.02.1747a1.4116,1.4116,0,0,0,.04.1682,1.359,1.359,0,0,1,.0391.1662c.0047.031-.01.0487-.0443.0536q-.0882.0129-.7033.0657.0707.589.1041.821.0395.2739.1406.82t.14.82c.0044.0294,0,.0489-.0128.0588a.2823.2823,0,0,1-.0632.0209,3.3806,3.3806,0,0,1-.4058.0773,3.2311,3.2311,0,0,1-.4224.0419.0686.0686,0,0,1-.0752-.0625q-.0394-.2737-.0951-.8247t-.095-.8245q-.0263-.1809-.1349-.8047-.457.1133-.7334.1529c-.0247.0036-.0382-.0024-.04-.0177a1.3374,1.3374,0,0,1,.0068-.1834c.0091-.1117.0135-.18.0132-.2031C24.8276,2.4547,24.8224,2.3813,24.8182,2.3076ZM21.2409,4.8854q.1011-1.6534.1034-1.8159c.0008-.0622.0133-.0968.0372-.1041q.0606-.0184.1906-.0453t.193-.0461c.04-.012.0992-.0326.176-.0615s.1349-.0492.1737-.0612c.0284-.0083.0623.0083.1011.05q.1809.2024,1.1292,1.4219.9531,1.2278.9713,1.2885c.0081.0269-.0049.0513-.0393.073a2.6747,2.6747,0,0,1-.412.1437,2.9475,2.9475,0,0,1-.4182.1068.1259.1259,0,0,1-.1268-.0719q-.1738-.3-.2232-.31a5.1022,5.1022,0,0,0-.6063.1656,1.86,1.86,0,0,0-.4.1427.646.646,0,0,0-.0127.2659q.0136.1992-.0422.2331a3.9986,3.9986,0,0,1-.5063.1724q-.3433.1035-.363.0382Q21.1488,6.4139,21.2409,4.8854Zm-4.4386.0406q.1568-.075.4745-.2169t.4742-.2167q.1543-.0741.461-.2312t.4612-.2313q.11-.0526.1661.0217.034.0437.174.2791t.1656.2886a.0426.0426,0,0,1-.0211.0646c-.0083.0041-.0234.01-.0453.0192q-.5847.2228-1.0328.4375c-.0745.0357-.112.0753-.112.1185a.73.73,0,0,0,.0675.168.33.33,0,0,0,.1333.17.2026.2026,0,0,0,.1568-.0255c.014-.0068.0408-.0211.0807-.0428s.0732-.0388.1-.0518q.2664-.1274.532-.2729l.1112-.0661a1.125,1.125,0,0,1,.11-.0633.0489.0489,0,0,1,.0742.0242A3.3129,3.3129,0,0,0,19.45,5.44a3.6947,3.6947,0,0,0,.1453.3463c.0133.0281,0,.0521-.0411.0716l-.2.07q-.1266.0449-.5557.25l-.2242.1073q-.0864.0418-.081.0909.0027.0117.0606.132a.692.692,0,0,0,.12.1972q.0741.0632.3161-.0344l.3086-.1479q.112-.0536.3232-.18t.3213-.1784c.031-.0149.0586.0031.0828.0536a3.0236,3.0236,0,0,1,.124.3513,1.4013,1.4013,0,0,1,.0833.3474.0868.0868,0,0,1-.05.0735.5966.5966,0,0,1-.0664.0242q-.1644.0526-.9107.41-.1624.0778-.4849.23t-.483.2289q-.07.0333-.099-.0281-.1137-.2367-.3143-.7237T17.51,6.4089q-.1157-.2411-.4558-.8862-.0875-.1661-.2653-.4941L16.7729,5C16.7544,4.969,16.7643,4.9443,16.8023,4.926ZM13.1417,7.2521q.055-.0543.5773-.4248.354-.25.5672-.395a1.4658,1.4658,0,0,1,.8576-.2888A.9044.9044,0,0,1,15.9,6.58a1.266,1.266,0,0,1,.2245.5075,1.1122,1.1122,0,0,1-.0787.5315c-.0158.0409-.0177.07-.0054.0886q-.0012-.0019.5666.3268a4.2677,4.2677,0,0,1,.6019.3794c.0062.0092-.0024.0245-.0256.0459a4.1047,4.1047,0,0,1-.363.2625,3.9594,3.9594,0,0,1-.3534.2221.2408.2408,0,0,1-.0549.0232.1053.1053,0,0,1-.0537-.0206c-.0533-.0372-.1328-.093-.2377-.1674q-.207-.1426-.6242-.4123a.2032.2032,0,0,0-.2092.0224c-.012.01-.08.057-.2057.1422q-.0293.02.0378.1188.0894.132.2909.3776t.2908.3776c.0151.0221.018.039.0089.0507l-.0516.0407q-.1094.085-.352.2495a3.117,3.117,0,0,1-.3417.2143.072.072,0,0,1-.0971-.0222q-.1441-.2136-.4157-.6583t-.4169-.66q-.5559-.8211-.9039-1.2563l-.02-.0258C13.0945,7.3169,13.105,7.2883,13.1417,7.2521ZM10.8693,9.0276A1.54,1.54,0,0,1,12.06,8.56a.1456.1456,0,0,1,.0967.0352,1.4719,1.4719,0,0,1,.1052.3531,1.9123,1.9123,0,0,1,.0677.3747.0638.0638,0,0,1-.0216.0459.6318.6318,0,0,1-.15.0106,1.2375,1.2375,0,0,0-.3015.04.8376.8376,0,0,0-.3456.1924.67.67,0,0,0-.2289.5635.92.92,0,0,0,.2622.5623.9375.9375,0,0,0,.5456.3094.6643.6643,0,0,0,.5823-.1821.8721.8721,0,0,0,.2232-.3281,1.1889,1.1889,0,0,0,.0671-.2859.6065.6065,0,0,1,.0237-.1435.0659.0659,0,0,1,.0521-.013q.0559.0054.3487.0763a1.7276,1.7276,0,0,1,.32.0934.1776.1776,0,0,1,.0307.1058,1.4213,1.4213,0,0,1-.4916,1.1554,1.53,1.53,0,0,1-1.2091.44,1.7325,1.7325,0,0,1-1.1534-.5927,1.7762,1.7762,0,0,1-.5042-1.1818A1.4579,1.4579,0,0,1,10.8693,9.0276Zm2.1648,43.0839a1.4434,1.4434,0,0,1-1.1489-.3386q-.1075-.0836-.5771-.4755-.0883-.0735-.261-.2266c-.1151-.1021-.202-.1781-.2609-.227-.0349-.0287-.0406-.0573-.0177-.0849q.1652-.1977.5115-.5818t.5114-.5823q.1727-.207.5018-.6328t.5006-.6308c.021-.0255.0507-.026.09-.0015a5.41,5.41,0,0,1,.4315.3354q.5544.4624.7047.6151a1.7932,1.7932,0,0,1,.4875.7729,1.4235,1.4235,0,0,1-.02.7521,1.8,1.8,0,0,1-1.4529,1.3063Zm4.8852.3166q-.12.2469-.15.2969a.0423.0423,0,0,1-.0653.0182c-.0081-.0052-.0219-.014-.0412-.0276q-.5077-.3648-.9338-.6208-.1066-.064-.161-.0281a.7405.7405,0,0,0-.1028.1484.33.33,0,0,0-.0683.2052c.0073.0391.0433.0781.1076.1167.0133.0078.04.0229.08.0437s.0727.04.0982.0552q.2531.1517.5208.2938c.0156.0073.0544.026.1167.0562a1.1488,1.1488,0,0,1,.1133.0568.0491.0491,0,0,1,.02.0755,3.325,3.325,0,0,0-.2208.2854c-.075.1011-.1448.2047-.2091.312-.0162.0266-.0435.0287-.0823.0052l-.169-.1286q-.1071-.0813-.5151-.3261l-.213-.1276c-.055-.0328-.0951-.039-.1206-.0177q-.0082.0087-.0768.1235a.6874.6874,0,0,0-.0982.2088q-.0117.0969.2031.2448-.0044-.0022.2932.1761.1067.064.3279.1713c.1477.0708.2563.1276.326.1693.03.0177.03.051.0008.0989a3.0044,3.0044,0,0,1-.2247.2969,1.42,1.42,0,0,1-.244.261.0882.0882,0,0,1-.0893-.0016.6145.6145,0,0,1-.0568-.0422q-.1344-.1086-.8438-.5339-.1551-.0928-.4591-.2786t-.4568-.2771c-.0442-.0265-.0546-.0588-.0315-.0979q.1351-.225.4313-.6609t.431-.6615q.1374-.2289.4885-.8682.0906-.1641.2664-.4938l.0149-.0291c.0159-.0323.0419-.0375.0778-.0162q.1488.09.4425.2766t.4422.2765q.1464.0883.4468.2573t.4469.2573c.07.0422.0943.0922.0735.1511Q18.0386,52.1816,17.9193,52.4281Zm2.5393,1.375a.036.036,0,0,1-.0544.02.4819.4819,0,0,1-.0552-.0318.5034.5034,0,0,0-.0594-.0338.5525.5525,0,0,0-.3016-.0474.2749.2749,0,0,0-.2393.1661.615.615,0,0,0,.0135.39q.1224.4626.1276.4855a.9426.9426,0,0,1-.0533.5369,1.0367,1.0367,0,0,1-.6943.5865,1.7168,1.7168,0,0,1-.937.0068l-.0289-.01q-.0492-.0219-.0867-.3979a1.4182,1.4182,0,0,1-.0086-.4422c.007-.0162.0221-.0214.0456-.0162a2.49,2.49,0,0,0,.4648.06.3874.3874,0,0,0,.368-.2328.5533.5533,0,0,0-.01-.3755c-.0836-.2682-.1278-.4167-.1328-.4443a.9549.9549,0,0,1,.068-.5588.8482.8482,0,0,1,.6487-.4938,1.7813,1.7813,0,0,1,.85.04l.0375.0141c.0216.0094.0312.0338.0289.0739q-.0129.1813.0117.6808A.0524.0524,0,0,1,20.4586,53.8031Zm2.1469.9563q-.1782.47-.2542.7088-.084.2632-.2393.7969t-.2391.7974c-.01.03-.0221.0458-.038.049a.5069.5069,0,0,1-.0609-.0094,3.5,3.5,0,0,1-.3943-.1057,2.9672,2.9672,0,0,1-.41-.1506.0714.0714,0,0,1-.0428-.0895q-.0113.0351.1454-.387.3285-.8915.419-1.175.0762-.2391.2127-.7219t.2128-.7219a.0466.0466,0,0,1,.0669-.0328c.0464.0151.1151.0391.2068.0734s.16.0584.2068.0735.1148.0338.2062.0583.16.0438.2065.0584c.0432.0135.06.0369.0492.07Q22.7836,54.29,22.6055,54.7594Zm4.1565,2.0614c-.0349.1474-.0591.2584-.0724.3323q-.0531.2977-.1151.8985l-.0024.0255c-.0044.0422-.0294.0594-.0757.051a1.7816,1.7816,0,0,1-.2435-.0958c-.1331-.0589-.2149-.0974-.2448-.1151a2.5847,2.5847,0,0,1-.9591.0239,1.5756,1.5756,0,0,1-1.0849-.6843,1.6607,1.6607,0,0,1-.2407-1.2646,1.7635,1.7635,0,0,1,.655-1.1354,1.5374,1.5374,0,0,1,1.2635-.2886,1.6722,1.6722,0,0,1,.636.2521,1.2686,1.2686,0,0,1,.4518.5089.1827.1827,0,0,1,.0253.0854q-.0133.0742-.2657.2943t-.3125.21a.4594.4594,0,0,1-.0893-.1135.9912.9912,0,0,0-.1992-.2167.8212.8212,0,0,0-.3708-.164.6729.6729,0,0,0-.5954.16.9375.9375,0,0,0-.295.5594.8731.8731,0,0,0,.09.63.7433.7433,0,0,0,.5341.3286,1.4409,1.4409,0,0,0,.5472-.0234q.0066-.0774.0276-.3953a3.2931,3.2931,0,0,1,.0393-.3927c.0052-.0292.0182-.0453.0393-.048a.1133.1133,0,0,1,.0378.0021q.0667.0117.2.0485c.0883.025.1558.0411.2019.05.0492.0088.1237.0182.2234.0291s.1739.02.2232.0292c.0385.0068.0531.0354.0442.0864C26.8214,56.5625,26.7971,56.6729,26.762,56.8208Zm4.589-.8958q-.0312.5352-.0354.8042l-.025,1.5448c-.001.0421-.0239.0625-.0692.0619-.0375-.0005-.0943,0-.17.0021s-.1328.0021-.17.0016c-.0407,0-.1011-.0047-.1823-.012s-.1422-.012-.1829-.0125c-.0281-.0005-.0614-.0271-.0994-.0792q-.1649-.23-.7427-1.02-.1587-.22-.4818-.65a.0987.0987,0,0,0-.0349-.0286.0633.0633,0,0,0-.0193.051q-.0047.2719.0016.8157t.0021.8161c-.0006.0547-.0224.0813-.0646.0807l-.811-.013c-.0453-.001-.0671-.0255-.0666-.0739q.0039-.2532.037-.7636t.0369-.7656q.0048-.27-.0088-.8068t-.0094-.8041q.0008-.0516.0922-.05c.0906.0015.2026-.0032.3354-.0136.0313-.0026.0932-.0114.186-.0271a1.1116,1.1116,0,0,1,.1854-.0182c.0187.0005.0468.0276.0854.0813l.8547,1.2114q.114.1641.3458.4792c.0385.0489.0714.0739.0995.0745.02,0,.0318-.0605.0338-.1823q.0039-.2462-.0151-.7412t-.0151-.7432c.0011-.0578.0183-.0865.0511-.0859q.1406.0022.4239-.0047c.1891-.0047.3308-.0068.4245-.0052.03.0005.0443.025.0432.0734Q31.382,55.39,31.351,55.925Zm4.0021,1.8969a.0861.0861,0,0,1-.07.0552.5226.5226,0,0,1-.0708.0036q-.1726.0024-.9906.1245c-.1193.0177-.2964.0438-.5313.0771s-.4114.0594-.5286.0766c-.0511.0078-.08-.011-.087-.0558-.0255-.1729-.0552-.4344-.0875-.7843s-.062-.611-.0875-.7839q-.04-.2649-.1755-.9813-.0343-.1844-.1084-.55l-.0067-.0322c-.0089-.0349.0078-.0558.05-.062q.1718-.0258.5171-.0677t.5172-.0683c.1131-.0166.2823-.0453.5089-.0854s.3958-.0687.5083-.0854c.08-.012.1313.0109.1526.07q.0195.0516.0844.3177t.0734.3245a.0428.0428,0,0,1-.039.0557c-.0094.0011-.0255.0031-.049.0047q-.6242.0414-1.1156.1146c-.0823.0125-.1292.04-.1422.0807a.7448.7448,0,0,0,.0151.18.33.33,0,0,0,.0776.2016.2021.2021,0,0,0,.1573.0219c.0156-.0026.0453-.0084.09-.0172s.0813-.0157.11-.02q.2922-.0438.5886-.1047c.0172-.0037.0588-.0141.126-.03a1.1647,1.1647,0,0,1,.1234-.0282.049.049,0,0,1,.0641.0448,3.2989,3.2989,0,0,0,.0109.361q.0095.1882.037.3734c.0047.0313-.0151.05-.06.0568l-.212.0078c-.089.0042-.2911.0292-.6047.0766l-.2458.0364c-.063.0094-.0979.0307-.1042.063,0,.0078.0063.0563.0193.1443a.6845.6845,0,0,0,.0573.2234c.0349.0547.1391.075.312.06q-.0047.0009.3385-.05.1227-.018.362-.0765c.1589-.0391.2792-.0641.3594-.0766.0338-.0047.0552.02.0635.076a3.0162,3.0162,0,0,1,.0151.3724A1.4066,1.4066,0,0,1,35.3531,57.8219ZM39.4109,56.24a1.4444,1.4444,0,0,1-.9062.7828q-.1288.0453-.7125.2281-.1094.0344-.3318.0969t-.3318.0969q-.0648.02-.0812-.0313c-.051-.164-.1224-.4125-.2125-.7453s-.1615-.5807-.213-.7448q-.0806-.2569-.26-.7646t-.26-.7619c-.01-.0318.0057-.0568.0474-.0766q.153-.0672.5151-.1813.6889-.2156.8989-.2593a1.7939,1.7939,0,0,1,.9136.0078,1.4244,1.4244,0,0,1,.6218.4239,1.8,1.8,0,0,1,.3125,1.9287Zm6.25-2.9781a1.4437,1.4437,0,0,1-.7474.8421c-.0333.0209-.0817.05-.1453.0865-.0635.04-.1109.0688-.1416.0875a8.0748,8.0748,0,0,1-.8948.5089.0716.0716,0,0,1-.0959-.0266q-.1313-.2133-.3729-.662t-.3739-.664q-.1422-.232-.5594-.8558-.1062-.16-.324-.4776l-.0192-.0271c-.0167-.0244-.0052-.0526.0349-.0843s.1921-.1292.4573-.2922q.6366-.3915.7473-.4542a1.8222,1.8222,0,0,1,.823-.2859.8124.8124,0,0,1,.7031.451.6128.6128,0,0,1,.0818.2938,1.2459,1.2459,0,0,1-.02.2708.599.599,0,0,1-.027.1213c.0057.0094.0317.0136.0786.012a.63.63,0,0,1,.3755.1188.9068.9068,0,0,1,.2756.287A.9937.9937,0,0,1,45.6609,53.2615Zm2.9553-1.9256a3.4918,3.4918,0,0,1-.3125.2839,4.0638,4.0638,0,0,1-.34.27A.0654.0654,0,0,1,47.87,51.88q-.08-.0945-.2286-.3026t-.23-.3042a.3021.3021,0,0,0-.1474-.0864q-.4757-.1227-1.413-.4125a.3149.3149,0,0,1-.138-.0792q-.0913-.1079-.2838-.313c-.1282-.137-.223-.2412-.2834-.3125-.0333-.04-.038-.0693-.0146-.0891.073-.0619.1855-.1526.3386-.2718s.2661-.2105.34-.273c.0271-.0234.0484-.026.0635-.0078q.0774.0906.225.2808t.2245.2812a1.03,1.03,0,0,0,.3849.1349c.1781.0411.32.07.425.0849q.0008-.1476-.0234-.4229a1.1238,1.1238,0,0,0-.0662-.3891q-.0758-.09-.2427-.26t-.2432-.2594c-.0214-.025-.0281-.0437-.02-.0562l.0448-.038c.0713-.06.176-.1552.314-.2834s.2438-.2234.3162-.2849c.0239-.02.0578-.0046.101.0464q.0806.0945.2453.2823t.2469.2838a.3875.3875,0,0,1,.0854.1579,7.7271,7.7271,0,0,1,.188,1.5156.306.306,0,0,0,.0578.1844q.0805.0945.2516.275t.25.2734c.0183.0214.0245.0385.0188.0516A.4756.4756,0,0,1,48.6162,51.3359ZM30,53.3333A23.3333,23.3333,0,1,1,53.3333,30,23.3333,23.3333,0,0,1,30,53.3333Z"/><path class="cls-2" d="M47.1953,10.8448a.7971.7971,0,0,0,.6526.23,1,1,0,0,0,.6146-.35.9035.9035,0,0,0,.26-.6375.8171.8171,0,0,0-.2922-.6184c-.1776-.1623-.2885-.22-.3312-.1722-.0625.0682-.1568.17-.2839.3042s-.2218.2362-.2838.3044-.1516.1688-.2719.3055-.212.2388-.274.307Q46.918,10.5923,47.1953,10.8448Z"/><path class="cls-2" d="M22.23,4.876q.0707-.0164.23-.0645.148-.0446.1529-.0855a.0876.0876,0,0,0-.005-.0325,2.2655,2.2655,0,0,0-.2263-.3774,3.4094,3.4094,0,0,0-.2726-.3682q-.0177.113-.03.4766a2.4165,2.4165,0,0,0,.0029.4474C22.09,4.8987,22.1391,4.9,22.23,4.876Z"/><path class="cls-2" d="M44.4135,52.8432a1.0247,1.0247,0,0,0-.3364.1516,1.1036,1.1036,0,0,0-.2677.1906.7322.7322,0,0,0,.1286.2583c.0964.1568.1584.2386.186.2443a.9035.9035,0,0,0,.3031-.1515,1.0926,1.0926,0,0,0,.2823-.2209.2643.2643,0,0,0,.0036-.3208A.2826.2826,0,0,0,44.4135,52.8432Z"/><path class="cls-2" d="M43.9667,51.9156a.2611.2611,0,0,0-.3115-.1224,1.3646,1.3646,0,0,0-.3338.1641q-.2157.1328-.1964.1646c.0156.0255.037.0651.0641.1192s.0479.0938.0635.1188c.0818.1333.1386.201.1714.2031a.9975.9975,0,0,0,.2645-.138Q44.1175,52.161,43.9667,51.9156Z"/></svg>