<svg id="Layer_1" data-name="Layer 1" xmlns="http://www.w3.org/2000/svg" width="50" height="45.7818" viewBox="0 0 50 45.7818"><defs><style>.cls-1{fill:#ff810c;}</style></defs><path class="cls-1" d="M24.3182,27.2727l-.1272.1318-.7818.7773-2.0456,2.0454v1.591h.0318l-.0318.0318v8.3772l1.3637-1.3636V38.8l.0318.0318,5.65-5.65.7816-.7773.582-.5863L30,31.5908l-5-5Zm3.9,4.1591-.391.3864-5.1,5.1V30.4863l1.4955-1.4909L25,28.2136l2.2727,2.2727Z" transform="translate(0 -2.1091)"/><path class="cls-1" d="M44.2863,9.0909A.7145.7145,0,0,1,44.2137,9c-.25-.2955-.5-.5819-.7592-.8637-.2545-.2773-.5136-.55-.7772-.8136-.2455-.2455-.4909-.4819-.7455-.7091-.3045-.2863-.6136-.5591-.9318-.8273l-.0909.0909-3.05,3.0545-.0909.0865-1.4046,1.4044-1.7182,1.7229-.1181.1135-2.7091,2.7091-.3863.391-1.7228-1.7227-1.4955-1.4955L27.2727,11.2,18.1818,2.1091v12.859L9,5.7863c-.2955.25-.5818.5-.8636.7592-.2773.2545-.55.5135-.8137.7772C6.7864,7.859,6.2773,8.4181,5.7863,9a.7145.7145,0,0,1-.0726.0909c-.2092.2546-.4182.5136-.6182.7773-.1864.25-.3728.5045-.55.759-.1319.191-.2637.3818-.3909.5728-.35.5227-.6819,1.0636-.9864,1.6136-.1546.2727-.3.5455-.4409.8228a24.9883,24.9883,0,0,0-1.5137,3.65c-.0955.2955-.1864.5955-.2727.8955Q.5932,19.4226.3682,20.7045c-.1091.6272-.1954,1.2636-.2545,1.9091a.8754.8754,0,0,0-.0092.1137C.0364,23.4727,0,24.2318,0,25s.0364,1.5273.1045,2.2727a.8784.8784,0,0,0,.0092.1137c.0591.6454.1454,1.2818.2545,1.9091q.2248,1.2816.5727,2.5227c.0863.3.1772.6.2727.8953a24.9815,24.9815,0,0,0,1.5137,3.65c.1409.2773.2863.55.4409.8228a24.1944,24.1944,0,0,0,1.3773,2.1863c.3682.5272.759,1.0409,1.1682,1.5364A.7007.7007,0,0,1,5.7863,41c.2682.3181.541.6272.8273.9318.2273.2546.4637.5.7091.7455.2637.2636.5364.5227.8137.7772.2818.2592.5681.5091.8636.7591l.0909-.0909,3.0546-3.05.0863-.0909a.6705.6705,0,0,1-.0863-.0727q-.4023-.3206-.7909-.6683l-.0228.0182-.7955-.7954c-.2408-.241-.4772-.4909-.7091-.7455-.2545-.2817-.5-.5681-.7363-.8636a.6648.6648,0,0,1-.0727-.0864c-.3591-.45-.7045-.9227-1.0274-1.4045a20.394,20.394,0,0,1-1.45-2.55,18.2556,18.2556,0,0,1-.8272-1.9954,19.6721,19.6721,0,0,1-.7774-2.8274c-.1135-.5636-.2-1.1363-.2636-1.7181-.0045-.0363-.0091-.0773-.0136-.1136a20.5759,20.5759,0,0,1,0-4.3183c.0045-.0363.0091-.0772.0136-.1135.0636-.5818.15-1.1546.2636-1.7183a19.673,19.673,0,0,1,.7774-2.8272,18.2408,18.2408,0,0,1,.8272-1.9955c.2773-.5773.5772-1.1455.9091-1.6908.1728-.291.3546-.5774.5408-.8591.1137-.1728.2364-.3455.3592-.5137.2136-.3045.4364-.6.6682-.8909l.0727.0727,9.0909,9.0909V47.8909L30.65,35.4226l.7819-.7772.3863-.3909,2.4363-2.4363.3909-.3864-2.8272-2.8272-.3863-.3864-.9456-.9455L28.2136,25l2.2727-2.2727.9456-.9409.3863-.391.5864-.5818,2.2408-2.2409.3864-.3909,2.7091-2.7091.1182-.1136,1.7181-1.7227,1.3319-1.3319.0727-.0727c.3592.45.7047.9227,1.0274,1.4046a20.3785,20.3785,0,0,1,1.45,2.55c.2136.4409.4136.8955.5909,1.3546.0818.2136.1637.4272.2363.6409.1637.459.3137.9317.4455,1.4045.1273.4682.2364.9454.3319,1.4227.1137.5637.2,1.1365.2636,1.7183.0045.0363.0091.0772.0136.1135a20.5759,20.5759,0,0,1,0,4.3183c-.0045.0363-.0091.0773-.0136.1136-.0636.5818-.15,1.1545-.2636,1.7181-.0955.4774-.2046.95-.3364,1.4182-.1273.4773-.2728.9455-.441,1.4092-.0726.2136-.1545.4272-.2363.6408-.1773.4591-.3773.9137-.5909,1.3546a20.394,20.394,0,0,1-1.45,2.55c-.3227.4818-.6682.9545-1.0274,1.4045a.6569.6569,0,0,1-.0727.0864c-.2182.2728-.4409.5363-.6682.7955l.0182.0182-.7954.7954a19.4011,19.4011,0,0,1-1.6092,1.4455.6705.6705,0,0,1-.0863.0727l.0909.0909,3.05,3.05L41,44.2136c.5818-.4909,1.141-1,1.6773-1.5363.2636-.2637.5227-.5364.7772-.8137.2592-.2818.5091-.5681.7592-.8636a.7007.7007,0,0,1,.0726-.0909c.4092-.4955.8-1.0092,1.1682-1.5364a24.1944,24.1944,0,0,0,1.3773-2.1863c.1546-.2729.3-.5455.4409-.8228.0773-.15.1546-.3.2274-.4545.3-.6182.5772-1.2546.8272-1.9.1636-.4272.3182-.859.4591-1.2955.0955-.2953.1864-.5954.2727-.8953q.3477-1.2411.5727-2.5227c.1092-.6273.1955-1.2637.2545-1.9091a.8784.8784,0,0,0,.0092-.1137C49.9636,26.5273,50,25.7682,50,25s-.0364-1.5273-.1045-2.2727a.8754.8754,0,0,0-.0092-.1137c-.059-.6455-.1453-1.2819-.2545-1.9091q-.2248-1.2817-.5727-2.5227c-.0863-.3-.1772-.6-.2727-.8955-.1409-.4363-.2955-.8681-.4591-1.2955-.25-.6453-.5273-1.2817-.8272-1.9-.0728-.1546-.15-.3046-.2274-.4545-.1409-.2773-.2863-.55-.4409-.8228a24.182,24.182,0,0,0-1.3773-2.1864C45.0865,10.1,44.6955,9.5863,44.2863,9.0909ZM28.8637,22.7273l-1.4591,1.4635-.1319.1273L26.591,25l6.3636,6.3636-1.591,1.5909-.8091.8137-.7817.7773-5.65,5.65-.6408.641-.0727.0727-2.5,2.5-1.3183,1.3183-.0453.0454v-17.5h-.0318l.0318-.0319V22.7591l-.0318-.0318h.0318v-17.5l11.009,11.0092.8774.8771.3863.3864,1.1364,1.1365Z" transform="translate(0 -2.1091)"/><path class="cls-1" d="M22.7591,11.1681l-.0318.0319v-.0637L21.3636,9.7727V18.15l.0318.0319h-.0318v1.5909l2.9546,2.9546.75.75.75-.75.0637-.0591,1.3908-1.3955,2.7955-2.7955-.2954-.2954Zm4.5136,8.3454L25,21.7864l-2.2727-2.2729V13.0818l.5545.5546L25,15.3545l2.2727,2.2727.5545.5546.391.3909Z" transform="translate(0 -2.1091)"/></svg>