<svg id="Layer_1" data-name="Layer 1" xmlns="http://www.w3.org/2000/svg" width="50" height="50" viewBox="0 0 50 50"><defs><style>.cls-1{fill:#fff;}</style></defs><polygon class="cls-1" points="24.36 28.29 23.13 29.51 23.13 34.8 27.32 30.61 27.65 30.29 26.87 29.51 25 27.64 24.36 28.29"/><polygon class="cls-1" points="26.87 18.94 25 17.07 23.59 15.65 23.13 15.2 23.13 20.49 25 22.36 26.87 20.49 27.65 19.71 27.32 19.39 26.87 18.94"/><path class="cls-1" d="M25,0A25,25,0,1,0,50,25,25,25,0,0,0,25,0ZM45.47,27c0,.53-.12,1.06-.21,1.57a20.25,20.25,0,0,1-.47,2.08c-.07.24-.15.49-.23.73s-.24.72-.37,1.07c-.21.53-.44,1.05-.68,1.56-.06.13-.13.25-.19.38L43,35a21,21,0,0,1-1.14,1.8c-.3.43-.62.86-1,1.26l-.06.08c-.2.24-.41.48-.62.71s-.42.45-.64.67q-.66.66-1.38,1.26l-.08-.07-2.5-2.51-.08-.08a.13.13,0,0,0,.07-.06A16.71,16.71,0,0,0,36.9,36.9l.65-.66h0c.19-.22.37-.43.55-.66a.13.13,0,0,0,.06-.07c.3-.37.58-.76.85-1.15a18,18,0,0,0,1.19-2.1c.18-.36.34-.74.49-1.12l.19-.52a12,12,0,0,0,.36-1.16c.11-.39.2-.78.28-1.17s.17-.93.22-1.41v-.09a17.65,17.65,0,0,0,0-3.56v-.09c0-.48-.13-.95-.22-1.41s-.17-.79-.27-1.17-.23-.78-.37-1.16l-.19-.52c-.15-.38-.31-.76-.49-1.12A18,18,0,0,0,39,15.65c-.27-.39-.55-.78-.85-1.15l-.06.06L37,15.65l-1.41,1.42-.1.09-2.23,2.23-.32.32-1.84,1.85-.48.48-.32.32-.78.77L27.64,25l1.87,1.87.78.78.32.31,2.32,2.33-.32.32-2,2-.32.32-.64.64L19.39,43.83V22l-7.47-7.48-.06-.06c-.19.24-.38.48-.55.73s-.21.28-.3.42-.3.47-.44.71a15.55,15.55,0,0,0-.75,1.39,13.81,13.81,0,0,0-.68,1.64,16.33,16.33,0,0,0-.64,2.33c-.09.46-.17.93-.22,1.41v.09a17.65,17.65,0,0,0,0,3.56v.09c.05.48.13.95.22,1.41a16.33,16.33,0,0,0,.64,2.33,13.81,13.81,0,0,0,.68,1.64A18,18,0,0,0,11,34.35c.27.39.55.78.85,1.15a.13.13,0,0,0,.06.07c.19.25.39.48.6.71l.58.62.66.65,0,0a8.24,8.24,0,0,0,.65.55.13.13,0,0,0,.07.06l-.07.08-2.51,2.51-.08.07-.71-.62-.67-.64c-.2-.2-.39-.41-.58-.61s-.46-.51-.68-.77l-.06-.08c-.34-.4-.66-.83-1-1.26A21,21,0,0,1,7,35l-.36-.67a19.83,19.83,0,0,1-1.24-3c-.08-.24-.16-.49-.23-.73a20.25,20.25,0,0,1-.47-2.08c-.09-.51-.16-1-.21-1.57,0,0,0-.06,0-.09,0-.61-.08-1.24-.08-1.87s0-1.26.08-1.87c0,0,0-.06,0-.09,0-.53.12-1.06.21-1.57a20.25,20.25,0,0,1,.47-2.08c.07-.24.15-.49.23-.73a19.83,19.83,0,0,1,1.24-3L7,15c.25-.46.53-.9.82-1.33.1-.16.21-.31.32-.47s.3-.42.45-.63.34-.43.51-.63l.06-.08q.6-.72,1.26-1.38l.67-.64.71-.62,7.55,7.55V6.17l7.48,7.48.77.77,1.23,1.23,1.42,1.42.32-.32,2.23-2.23.09-.09L34.35,13l1.15-1.15.08-.08,2.5-2.51.08-.07c.26.22.52.44.77.68l.61.58c.22.22.43.44.64.67s.42.47.62.71l.06.08c.34.4.66.83,1,1.26A21,21,0,0,1,43,15l.36.67c.06.13.13.25.19.38.24.51.47,1,.68,1.56.13.35.26.71.37,1.07s.16.49.23.73a20.25,20.25,0,0,1,.47,2.08c.09.51.16,1,.21,1.57,0,0,0,.06,0,.09.05.61.08,1.24.08,1.87s0,1.26-.08,1.87C45.48,26.9,45.47,26.93,45.47,27Z"/><path class="cls-1" d="M30.29,18.51l-.72-.72-9.06-9V23.13h0l0,0v3.68l0,0h0V41.26l0,0,1.09-1.08,2.05-2.06.06-.06.53-.52,4.65-4.65.64-.64.66-.67,1.31-1.31L26.31,25l.56-.56.11-.11,1.2-1.2,3.36-3.36-.93-.94ZM29.11,30.42l-.18.19-.48.48-.65.64-4.64,4.65,0,0v0L22,37.52V30.63l0,0h0V29.3l1.68-1.68.64-.64.11-.11.56-.56Zm-2.24-8.49-1.14,1.15-.06.05-.61.62-.62-.62L22,20.7V19.39h0l0,0V12.48l1.12,1.12v.05l0,0,5.77,5.77.24.25Z"/></svg>