<svg id="Layer_1" data-name="Layer 1" xmlns="http://www.w3.org/2000/svg" width="50" height="50" viewBox="0 0 50 50"><path d="M31.13,17.48l-.83-.83L19.8,6.15V22.83h0l0,0v4.28l0,0h0V43.85l0,0,1.26-1.26,2.38-2.38.07-.07.61-.61,5.39-5.39.75-.74.77-.78,1.51-1.51L26.52,25l.65-.65.12-.12,1.39-1.4,3.9-3.9L31.5,17.85Zm-1.36,13.8-.22.22-.55.56-.75.74-5.39,5.39,0,0v.06l-1.3,1.3v-8l0,0h0V30L23.48,28l.75-.74.12-.12.65-.65Zm-2.6-9.83-1.33,1.33-.06,0-.71.72-.72-.72L21.53,20V18.5h0l0,0v-8l1.3,1.3v.06l0,0,6.69,6.69.28.28Z"/><polygon points="27.17 17.97 25 15.8 23.36 14.17 22.83 13.64 22.83 19.77 25 21.94 27.17 19.77 28.07 18.87 27.7 18.5 27.17 17.97"/><path d="M25,0A25,25,0,1,0,50,25,25,25,0,0,0,25,0ZM48.72,27.27a17.73,17.73,0,0,1-.24,1.82,24,24,0,0,1-.54,2.41c-.09.29-.17.57-.26.85s-.29.83-.44,1.24c-.24.61-.5,1.22-.79,1.81-.07.15-.14.29-.22.43s-.27.53-.42.79A23.47,23.47,0,0,1,44.5,38.7q-.53.75-1.11,1.47a.27.27,0,0,0-.07.08c-.24.28-.48.56-.73.83s-.49.52-.74.77c-.51.51-1,1-1.6,1.47l-.08-.09-2.91-2.91-.09-.08.08-.07a20.2,20.2,0,0,0,1.54-1.38l.76-.76,0,0c.22-.24.43-.5.64-.76l.07-.08c.34-.43.67-.88,1-1.34A19.35,19.35,0,0,0,42.6,33.4c.2-.42.39-.85.56-1.29.08-.2.16-.41.23-.61.16-.44.29-.89.42-1.34s.23-.9.32-1.36.19-1.08.25-1.63c0,0,0-.08,0-.11a19.34,19.34,0,0,0,0-4.12s0-.07,0-.11c-.06-.55-.14-1.1-.25-1.63s-.2-.91-.32-1.36-.27-.9-.42-1.34c-.07-.2-.15-.41-.23-.61-.17-.44-.36-.87-.56-1.29a19.35,19.35,0,0,0-1.39-2.43c-.3-.46-.63-.91-1-1.34l-.07.07L38.9,14.17l-1.64,1.64-.11.11L34.56,18.5l-.36.37L32.06,21l-.56.55-.37.38-.9.89L28.06,25l2.17,2.17.9.9.37.37,2.7,2.69-.38.37L31.5,33.82l-.37.38-.74.74L18.5,46.82V21.56L9.83,12.9l-.07-.07c-.22.28-.43.56-.63.85a5.36,5.36,0,0,0-.34.49c-.18.27-.36.54-.52.82-.32.52-.6,1.06-.87,1.61a17.66,17.66,0,0,0-.79,1.9,19.88,19.88,0,0,0-.74,2.7c-.11.53-.19,1.08-.25,1.63v.11a19.34,19.34,0,0,0,0,4.12v.11c.06.55.14,1.1.25,1.63a19.88,19.88,0,0,0,.74,2.7,17.66,17.66,0,0,0,.79,1.9,19.35,19.35,0,0,0,1.39,2.43c.3.46.63.91,1,1.34l.07.08c.23.29.46.56.71.83s.44.48.67.71l.76.76,0,0,.76.64.08.07-.08.08L9.83,43.23l-.08.09c-.28-.24-.56-.48-.83-.73l-.77-.74c-.24-.23-.46-.47-.68-.71s-.53-.58-.79-.89a.27.27,0,0,0-.07-.08Q6,39.45,5.5,38.7a23.47,23.47,0,0,1-1.31-2.08c-.15-.26-.29-.52-.42-.79a23.19,23.19,0,0,1-1.45-3.48c-.09-.28-.17-.56-.26-.85a24,24,0,0,1-.54-2.41,17.73,17.73,0,0,1-.24-1.82.31.31,0,0,1,0-.1c-.07-.71-.1-1.44-.1-2.17s0-1.46.1-2.17a.31.31,0,0,1,0-.1,17.73,17.73,0,0,1,.24-1.82,24,24,0,0,1,.54-2.41c.09-.29.17-.57.26-.85a23.19,23.19,0,0,1,1.45-3.48c.13-.27.27-.53.42-.79.29-.52.6-1,.94-1.54l.37-.54L6,10.57l.59-.74a.27.27,0,0,0,.07-.08c.47-.56,1-1.09,1.47-1.6l.77-.74c.27-.25.55-.49.83-.73l8.75,8.76V3.18l8.67,8.66.89.9,1.43,1.43,1.64,1.64.37-.37,2.58-2.59.12-.1,1.63-1.65,1.34-1.34.09-.08,2.91-2.91.08-.09c.31.26.6.52.89.79s.48.44.71.68.5.51.74.77.49.55.73.83a.27.27,0,0,0,.07.08q.59.72,1.11,1.47a23.47,23.47,0,0,1,1.31,2.08c.15.26.29.52.42.79s.15.28.22.43c.29.59.55,1.2.79,1.81.15.41.3.82.44,1.24s.17.56.26.85a24,24,0,0,1,.54,2.41,17.73,17.73,0,0,1,.24,1.82.31.31,0,0,1,0,.1c.07.71.1,1.44.1,2.17s0,1.46-.1,2.17A.31.31,0,0,1,48.72,27.27Z"/><polygon points="24.26 28.81 22.83 30.23 22.83 36.36 27.7 31.5 28.07 31.13 27.17 30.23 25 28.06 24.26 28.81"/></svg>