<svg id="Layer_1" data-name="Layer 1" xmlns="http://www.w3.org/2000/svg" width="46.5396" height="48.0707" viewBox="0 0 46.5396 48.0707"><defs><style>.cls-1{fill:#ff810c;}</style></defs><path d="M2.2289,24.9954q0-9.8718.0005-19.7434A4.0422,4.0422,0,0,1,4.434,1.4846a3.8675,3.8675,0,0,1,1.8637-.4765c.609-.007,1.2182-.0041,1.8273-.0041q16.8833,0,33.7663-.004a4.1987,4.1987,0,0,1,3.747,1.9082A3.6063,3.6063,0,0,1,46.274,4.926q.0106,8.3621.0029,16.7242A1.3508,1.3508,0,0,1,44.97,23.0677a1.3223,1.3223,0,0,1-1.4364-1.2708,6.2562,6.2562,0,0,1-.0241-.674q-.0018-7.8855.0025-15.7709a1.3567,1.3567,0,0,0-.88-1.4806,2.149,2.149,0,0,0-.6993-.1068q-17.6577-.0075-35.3156-.003c-1.111,0-1.6.4931-1.6,1.5978q-.002,19.6639,0,39.3278c0,1.1486.4856,1.6221,1.6578,1.6224q9.8319.0018,19.6639-.0006a1.7619,1.7619,0,0,1,1.3038.3561,1.352,1.352,0,0,1,.3906,1.3816,1.2425,1.2425,0,0,1-.96.9542,2.1977,2.1977,0,0,1-.5489.0655q-10.0107.0045-20.0215-.0023a4.07,4.07,0,0,1-3.8765-2.36,4.2518,4.2518,0,0,1-.4-1.965Q2.2334,34.8671,2.2289,24.9954Z" transform="translate(-2.2254 -1)"/><path d="M38.1477,40.0052c-.2524.5575-.4936,1.0794-.726,1.6051-.8548,1.9338-1.7036,3.87-2.5629,5.8019a.8878.8878,0,0,1-1.6413.0281c-.4-.8344-.8063-1.6666-1.1757-2.5147-.1248-.2866-.2749-.2936-.52-.2146-.8552.2758-1.7183.5283-2.5683.819a.8766.8766,0,0,1-.9858-.2033.854.854,0,0,1-.1484-1.0224c.935-2.0858,1.85-4.18,2.77-6.2729.3879-.8821.7829-1.7615,1.1447-2.6543a.7511.7511,0,0,0-.0277-.5814,7.4809,7.4809,0,0,1-.9913-4.9229,7.5962,7.5962,0,0,1,10.0533-6.1254,7.2587,7.2587,0,0,1,4.7626,5.0433A7.44,7.44,0,0,1,44.651,35a.5833.5833,0,0,0-.017.4651c.98,2.2538,1.9739,4.5015,2.9652,6.75q.5274,1.1964,1.0567,2.392a.883.883,0,0,1-1.1131,1.2434c-.8676-.2813-1.7429-.5387-2.61-.8225-.23-.0754-.3442-.06-.4548.1873-.3829.8555-.7993,1.6959-1.1976,2.5446a.8921.8921,0,0,1-1.6577-.0545q-1.6626-3.7926-3.3347-7.581C38.279,40.1035,38.25,40.0909,38.1477,40.0052Zm-5.3888-9.1124A5.4922,5.4922,0,1,0,38.22,25.3889,5.4922,5.4922,0,0,0,32.7589,30.8928Zm13.475,12.6911a2.4591,2.4591,0,0,0-.0786-.3076q-1.3917-3.1542-2.7846-6.3078c-.113-.2573-.2253-.2722-.4413-.1A6.9634,6.9634,0,0,1,40.6,38.1106c-.36.11-.7239.2084-1.1479.33l3.0111,6.82c.1086-.1792.1609-.2511.1985-.33.2219-.4654.4272-.9394.6639-1.3971a.8775.8775,0,0,1,1.1256-.4895c.1533.04.3013.1.4532.1455C45.3264,43.3163,45.7492,43.44,46.2339,43.5839ZM33.1526,36.5678l-2.9659,6.7236c.6494-.1987,1.162-.3645,1.68-.512.7716-.22,1.1109-.0456,1.4345.6917.2.455.4186.9015.6288,1.3518l.1316.0294,2.8557-6.4676A8.2635,8.2635,0,0,1,33.1526,36.5678Z" transform="translate(-2.2254 -1)"/><path d="M24.2155,8.4775q6.8913,0,13.7827.0009a1.4129,1.4129,0,0,1,1.4769.91,1.3338,1.3338,0,0,1-.8563,1.7745,2.8416,2.8416,0,0,1-.7829.1021q-13.6437.0076-27.2874.0038a1.58,1.58,0,0,1-1.4863-.6564,1.3828,1.3828,0,0,1,1.0531-2.1263c.171-.0145.344-.0081.516-.0081Q17.4235,8.477,24.2155,8.4775Z" transform="translate(-2.2254 -1)"/><path d="M24.1705,20.7543q-6.8118,0-13.6236.0028a1.6294,1.6294,0,0,1-1.3672-.49,1.3025,1.3025,0,0,1-.2457-1.4088,1.3952,1.3952,0,0,1,1.2248-.8752,2.708,2.708,0,0,1,.3175-.0089q13.7429-.0006,27.4857,0a1.4254,1.4254,0,0,1,1.5439.9894,1.3671,1.3671,0,0,1-1.0781,1.7541,5.49,5.49,0,0,1-.7527.0349Q30.9229,20.7559,24.1705,20.7543Z" transform="translate(-2.2254 -1)"/><path d="M18.428,30.2488q-3.95,0-7.8988,0a1.5428,1.5428,0,0,1-1.5007-.6913,1.3736,1.3736,0,0,1,.9884-2.0558,2.408,2.408,0,0,1,.3169-.0141q8.1171-.0011,16.2343,0a1.3585,1.3585,0,0,1,1.4651,1.118,1.326,1.326,0,0,1-1.1148,1.5892,4.8133,4.8133,0,0,1-.7107.0514Q22.3179,30.252,18.428,30.2488Z" transform="translate(-2.2254 -1)"/><path d="M18.1755,39.819c-2.5942,0-5.1885-.005-7.7827.0044a1.4507,1.4507,0,0,1-1.212-.4646,1.2967,1.2967,0,0,1-.2471-1.4079,1.3322,1.3322,0,0,1,1.1452-.86,3.1687,3.1687,0,0,1,.357-.0114q7.7232-.0009,15.4464-.0029a1.45,1.45,0,0,1,1.4269.737,1.3327,1.3327,0,0,1-1.0734,1.9869c-1.2432.0365-2.488.0164-3.7321.0179Q20.34,39.8213,18.1755,39.819Z" transform="translate(-2.2254 -1)"/><path class="cls-1" d="M2.2289,24.9954q0-9.8718.0005-19.7434A4.0422,4.0422,0,0,1,4.434,1.4846a3.8675,3.8675,0,0,1,1.8637-.4765c.609-.007,1.2182-.0041,1.8273-.0041q16.8833,0,33.7663-.004a4.1987,4.1987,0,0,1,3.747,1.9082A3.6063,3.6063,0,0,1,46.274,4.926q.0106,8.3621.0029,16.7242A1.3508,1.3508,0,0,1,44.97,23.0677a1.3223,1.3223,0,0,1-1.4364-1.2708,6.2562,6.2562,0,0,1-.0241-.674q-.0018-7.8855.0025-15.7709a1.3567,1.3567,0,0,0-.88-1.4806,2.149,2.149,0,0,0-.6993-.1068q-17.6577-.0075-35.3156-.003c-1.111,0-1.6.4931-1.6,1.5978q-.002,19.6639,0,39.3278c0,1.1486.4856,1.6221,1.6578,1.6224q9.8319.0018,19.6639-.0006a1.7619,1.7619,0,0,1,1.3038.3561,1.352,1.352,0,0,1,.3906,1.3816,1.2425,1.2425,0,0,1-.96.9542,2.1977,2.1977,0,0,1-.5489.0655q-10.0107.0045-20.0215-.0023a4.07,4.07,0,0,1-3.8765-2.36,4.2518,4.2518,0,0,1-.4-1.965Q2.2334,34.8671,2.2289,24.9954Z" transform="translate(-2.2254 -1)"/><path class="cls-1" d="M38.1477,40.0052c-.2524.5575-.4936,1.0794-.726,1.6051-.8548,1.9338-1.7036,3.87-2.5629,5.8019a.8878.8878,0,0,1-1.6413.0281c-.4-.8344-.8063-1.6666-1.1757-2.5147-.1248-.2866-.2749-.2936-.52-.2146-.8552.2758-1.7183.5283-2.5683.819a.8766.8766,0,0,1-.9858-.2033.854.854,0,0,1-.1484-1.0224c.935-2.0858,1.85-4.18,2.77-6.2729.3879-.8821.7829-1.7615,1.1447-2.6543a.7511.7511,0,0,0-.0277-.5814,7.4809,7.4809,0,0,1-.9913-4.9229,7.5962,7.5962,0,0,1,10.0533-6.1254,7.2587,7.2587,0,0,1,4.7626,5.0433A7.44,7.44,0,0,1,44.651,35a.5833.5833,0,0,0-.017.4651c.98,2.2538,1.9739,4.5015,2.9652,6.75q.5274,1.1964,1.0567,2.392a.883.883,0,0,1-1.1131,1.2434c-.8676-.2813-1.7429-.5387-2.61-.8225-.23-.0754-.3442-.06-.4548.1873-.3829.8555-.7993,1.6959-1.1976,2.5446a.8921.8921,0,0,1-1.6577-.0545q-1.6626-3.7926-3.3347-7.581C38.279,40.1035,38.25,40.0909,38.1477,40.0052Zm-5.3888-9.1124A5.4922,5.4922,0,1,0,38.22,25.3889,5.4922,5.4922,0,0,0,32.7589,30.8928Zm13.475,12.6911a2.4591,2.4591,0,0,0-.0786-.3076q-1.3917-3.1542-2.7846-6.3078c-.113-.2573-.2253-.2722-.4413-.1A6.9634,6.9634,0,0,1,40.6,38.1106c-.36.11-.7239.2084-1.1479.33l3.0111,6.82c.1086-.1792.1609-.2511.1985-.33.2219-.4654.4272-.9394.6639-1.3971a.8775.8775,0,0,1,1.1256-.4895c.1533.04.3013.1.4532.1455C45.3264,43.3163,45.7492,43.44,46.2339,43.5839ZM33.1526,36.5678l-2.9659,6.7236c.6494-.1987,1.162-.3645,1.68-.512.7716-.22,1.1109-.0456,1.4345.6917.2.455.4186.9015.6288,1.3518l.1316.0294,2.8557-6.4676A8.2635,8.2635,0,0,1,33.1526,36.5678Z" transform="translate(-2.2254 -1)"/><path class="cls-1" d="M24.2155,8.4775q6.8913,0,13.7827.0009a1.4129,1.4129,0,0,1,1.4769.91,1.3338,1.3338,0,0,1-.8563,1.7745,2.8416,2.8416,0,0,1-.7829.1021q-13.6437.0076-27.2874.0038a1.58,1.58,0,0,1-1.4863-.6564,1.3828,1.3828,0,0,1,1.0531-2.1263c.171-.0145.344-.0081.516-.0081Q17.4235,8.477,24.2155,8.4775Z" transform="translate(-2.2254 -1)"/><path class="cls-1" d="M24.1705,20.7543q-6.8118,0-13.6236.0028a1.6294,1.6294,0,0,1-1.3672-.49,1.3025,1.3025,0,0,1-.2457-1.4088,1.3952,1.3952,0,0,1,1.2248-.8752,2.708,2.708,0,0,1,.3175-.0089q13.7429-.0006,27.4857,0a1.4254,1.4254,0,0,1,1.5439.9894,1.3671,1.3671,0,0,1-1.0781,1.7541,5.49,5.49,0,0,1-.7527.0349Q30.9229,20.7559,24.1705,20.7543Z" transform="translate(-2.2254 -1)"/><path class="cls-1" d="M18.428,30.2488q-3.95,0-7.8988,0a1.5428,1.5428,0,0,1-1.5007-.6913,1.3736,1.3736,0,0,1,.9884-2.0558,2.408,2.408,0,0,1,.3169-.0141q8.1171-.0011,16.2343,0a1.3585,1.3585,0,0,1,1.4651,1.118,1.326,1.326,0,0,1-1.1148,1.5892,4.8133,4.8133,0,0,1-.7107.0514Q22.3179,30.252,18.428,30.2488Z" transform="translate(-2.2254 -1)"/><path class="cls-1" d="M18.1755,39.819c-2.5942,0-5.1885-.005-7.7827.0044a1.4507,1.4507,0,0,1-1.212-.4646,1.2967,1.2967,0,0,1-.2471-1.4079,1.3322,1.3322,0,0,1,1.1452-.86,3.1687,3.1687,0,0,1,.357-.0114q7.7232-.0009,15.4464-.0029a1.45,1.45,0,0,1,1.4269.737,1.3327,1.3327,0,0,1-1.0734,1.9869c-1.2432.0365-2.488.0164-3.7321.0179Q20.34,39.8213,18.1755,39.819Z" transform="translate(-2.2254 -1)"/></svg>