<svg id="Layer_1" data-name="Layer 1" xmlns="http://www.w3.org/2000/svg" xmlns:xlink="http://www.w3.org/1999/xlink" width="50" height="50" viewBox="0 0 50 50"><defs><style>.cls-1{fill:url(#linear-gradient);}</style><linearGradient id="linear-gradient" y1="25" x2="50" y2="25" gradientUnits="userSpaceOnUse"><stop offset="0" stop-color="#ff810c"/><stop offset="1" stop-color="#f04a00"/></linearGradient></defs><path class="cls-1" d="M24.5694,26.4355l-.08.0832-.4938.491-1.292,1.2919v1.0049h.02l-.02.02v5.2912l.8613-.8613v-.04l.02.02,3.5687-3.5686.4937-.4909.3676-.37.1435-.1436L25,26.0048Zm2.4632,2.6269-.2469.2441-3.2212,3.2211V28.4652l.9446-.9416L25,27.03l1.4355,1.4354Z"/><path class="cls-1" d="M37.1815,14.9516a.4494.4494,0,0,1-.0459-.0574c-.1579-.1866-.3158-.3676-.4795-.5455-.1607-.1752-.3244-.3474-.4909-.5139-.1551-.1551-.31-.3044-.4708-.4479-.1924-.1808-.3876-.3531-.5886-.5225l-.0574.0574L33.122,14.8511l-.0574.0546-.8872.887-1.0852,1.0882-.0746.0717-1.7111,1.7111-.244.247-1.0882-1.0881L27.03,16.878l-.5943-.5943-5.742-5.7419v8.1219l-5.7993-5.7993c-.1866.1579-.3675.3158-.5455.4795-.1751.1607-.3474.3243-.5139.4909-.3388.3387-.66.6918-.97,1.0594a.4494.4494,0,0,1-.0459.0574c-.1321.1608-.2641.3244-.39.4909-.1177.1579-.2354.3187-.3474.4795-.0832.1206-.1665.2411-.2468.3617-.2211.33-.4307.6718-.623,1.0192-.0977.1723-.19.3445-.2786.52a15.79,15.79,0,0,0-.956,2.3053c-.06.1867-.1177.3761-.1723.5656q-.22.7838-.3617,1.5934c-.0689.3962-.1234.7981-.1607,1.2058a.5553.5553,0,0,0-.0058.0718c-.0431.4709-.066.95-.066,1.4355s.0229.9646.066,1.4355a.5553.5553,0,0,0,.0058.0718c.0373.4076.0918.81.1607,1.2058q.142.81.3617,1.5934c.0546.1894.112.3789.1723.5655a15.7863,15.7863,0,0,0,.956,2.3054c.089.1752.1809.3474.2786.52a15.2969,15.2969,0,0,0,.87,1.3809q.3489.4995.7379.97a.4425.4425,0,0,1,.0459.0574c.1694.2009.3417.3962.5225.5886.1436.1608.2929.3157.4479.4708.1665.1665.3388.33.5139.4909.178.1637.3589.3216.5455.4795l.0574-.0575,1.9293-1.9264.0545-.0574a.4215.4215,0,0,1-.0545-.0459q-.2541-.2025-.5-.4221l-.0144.0115-.5025-.5024c-.1521-.1522-.3014-.31-.4478-.4709-.1608-.1779-.3158-.3588-.4651-.5454a.4158.4158,0,0,1-.0459-.0546c-.2268-.2842-.445-.5828-.6489-.8871a12.8775,12.8775,0,0,1-.9158-1.6106,11.5321,11.5321,0,0,1-.5225-1.26,12.4264,12.4264,0,0,1-.491-1.7858c-.0717-.356-.1263-.7177-.1665-1.0852l-.0086-.0718a12.9873,12.9873,0,0,1,0-2.7275l.0086-.0717c.04-.3675.0948-.7293.1665-1.0853a12.4251,12.4251,0,0,1,.491-1.7857,11.5336,11.5336,0,0,1,.5225-1.26c.1751-.3646.3646-.7235.5742-1.0679.1091-.1838.2239-.3647.3416-.5426.0718-.1092.1493-.2182.2269-.3245.1349-.1923.2756-.3789.422-.5627l.0459.046,5.7419,5.7419V39.4582l7.8751-7.8751.4939-.4909.244-.2469,1.5388-1.5388.2469-.2441-1.7857-1.7857-.244-.2441-.5973-.5971L27.03,25l1.4354-1.4355.5973-.5943.244-.2469.37-.3675L31.0922,20.94l.244-.2469,1.7111-1.7111.0747-.0717,1.0852-1.0881.8412-.8412.0459-.046c.2269.2842.4451.5828.6489.8872a12.8762,12.8762,0,0,1,.9158,1.61c.1349.2785.2613.5656.3732.8556.0517.1349.1034.27.1493.4048.1034.29.1981.5885.2814.8871.08.2958.1493.5972.21.8986.0718.356.1263.7178.1665,1.0853l.0086.0717a12.9873,12.9873,0,0,1,0,2.7275l-.0086.0718c-.04.3675-.0947.7292-.1665,1.0852-.06.3014-.1292.6-.2125.8957-.08.3015-.1722.5972-.2785.89-.0459.1349-.0976.27-.1493.4047-.1119.29-.2383.5771-.3732.8556a12.8775,12.8775,0,0,1-.9158,1.6106c-.2038.3043-.422.6029-.6489.8871a.4082.4082,0,0,1-.0459.0546c-.1378.1723-.2785.3387-.422.5024l.0115.0115-.5024.5024a12.2731,12.2731,0,0,1-1.0164.913.4215.4215,0,0,1-.0545.0459l.0574.0574,1.9264,1.9264.0574.0575c.3675-.31.7207-.6316,1.0594-.97.1665-.1665.33-.3388.4909-.5139.1637-.178.3216-.3589.4795-.5455a.4425.4425,0,0,1,.0459-.0574c.2584-.313.5054-.6374.7379-.97a15.2969,15.2969,0,0,0,.87-1.3809c.0977-.1723.19-.3445.2786-.52.0488-.0947.0976-.1895.1435-.2871.1895-.39.3646-.7924.5225-1.2.1034-.27.201-.5425.29-.8182.06-.1866.1177-.3761.1723-.5655q.22-.7839.3617-1.5934c.0689-.3962.1235-.7982.1607-1.2058a.5553.5553,0,0,0,.0058-.0718c.0431-.4709.066-.95.066-1.4355s-.0229-.9646-.066-1.4355a.5553.5553,0,0,0-.0058-.0718c-.0372-.4077-.0918-.81-.1607-1.2058q-.1421-.81-.3617-1.5934c-.0546-.1895-.112-.3789-.1723-.5656-.089-.2756-.1866-.5483-.29-.8182-.1579-.4076-.333-.81-.5225-1.2-.0459-.0977-.0947-.1924-.1435-.2871-.089-.1752-.1809-.3474-.2786-.52a15.269,15.269,0,0,0-.87-1.3809C37.6869,15.5889,37.44,15.2645,37.1815,14.9516ZM27.44,23.5645l-.9216.9244-.0833.08L26.0049,25l4.0193,4.0194-1.0048,1.0048-.5111.5139-.4937.4909-3.5687,3.5686-.4048.4049-.0459.0459-1.5791,1.579-.8326.8326-.0287.0287V26.4355h-.02l.02-.02V23.5846l-.02-.02h.02V12.5112l6.9535,6.9536.5542.554.244.2441.7177.7177Z"/><path class="cls-1" d="M23.5846,16.2636l-.02.02v-.04l-.8613-.8613v5.2912l.02.02h-.02v1.0048l1.8662,1.8662.4736.4737.4738-.4737.04-.0373.8785-.8814L28.2011,20.88l-.1865-.1866Zm2.8509,5.2711L25,22.97l-1.4355-1.4355V17.4723l.35.35L25,18.9078l1.4355,1.4354.35.35.2469.2469Z"/><path class="cls-1" d="M28.1641,47.3173a.96.96,0,0,0-.3421-.0005,1.02,1.02,0,0,0-.2986.0586.6938.6938,0,0,0,.01.2665.6866.6866,0,0,0,.0634.2774.8466.8466,0,0,0,.3142-.0122,1.0259,1.0259,0,0,0,.322-.0777.2452.2452,0,0,0,.1259-.27A.2625.2625,0,0,0,28.1641,47.3173Z"/><path class="cls-1" d="M13.697,44.4922q-.0192.0339.0921.1016.0563.037.1907.1124c.0831.0473.1348.0629.155.0477a.0834.0834,0,0,0,.0186-.0243,2.107,2.107,0,0,0,.1072-.3932,3.0527,3.0527,0,0,0,.0714-.418q-.0866.0606-.3379.2852A2.2342,2.2342,0,0,0,13.697,44.4922Z"/><path class="cls-1" d="M10.0462,41.8012a1.0092,1.0092,0,0,0-.2409-.1862c-.021,0-.0857.0608-.1944.1827q-.17.1914-.1669.23t.2155.2279a1.0193,1.0193,0,0,0,.2711.1914.2442.2442,0,0,0,.2855-.0829.2613.2613,0,0,0,.0543-.306A.9544.9544,0,0,0,10.0462,41.8012Z"/><path class="cls-1" d="M28.1415,46.3641a.2413.2413,0,0,0-.2162-.2217,1.2527,1.2527,0,0,0-.3437.01c-.1554.02-.2309.0408-.2283.0638q.0053.0409.0078.125c.0017.056.0052.0972.0087.1245.0174.1437.04.2227.0668.2366a.8962.8962,0,0,0,.2761-.0152Q28.1749,46.6289,28.1415,46.3641Z"/><path class="cls-1" d="M18.5731,45.349c-.1315-.0408-.2074-.0421-.228-.0048a3.7893,3.7893,0,0,0-.1379.4028c-.01.0316-.0236.079-.0414.1415s-.0315.1093-.0408.14c-.0022.007.0178.02.06.0412a1.9253,1.9253,0,0,0,.26.1007q.454.14.5655-.2209a.3888.3888,0,0,0-.0579-.4015A.8637.8637,0,0,0,18.5731,45.349Z"/><path class="cls-1" d="M16.54,4.7728c.01.0241.0553.0213.1369-.0085q.0639-.0212.2068-.0788c.0886-.0355.1333-.0661.1342-.0913a.095.095,0,0,0-.0074-.03,2.1355,2.1355,0,0,0-.24-.3287,3.05,3.05,0,0,0-.2823-.3169q-.0065.1054.0122.4421A2.2209,2.2209,0,0,0,16.54,4.7728Z"/><path class="cls-1" d="M23.1035,46.6341q-.0534.0912-.1888.4a2.2738,2.2738,0,0,0-.1508.3854q-.0033.039.1261.0547.0667.01.22.023.1427.0123.1609-.0209a.0861.0861,0,0,0,.0069-.03,2.14,2.14,0,0,0-.0658-.4024A3.0327,3.0327,0,0,0,23.1035,46.6341Z"/><path class="cls-1" d="M10.7635,40.8537q-.1752-.1556-.1982-.13c-.0184.02-.0479.05-.0885.0881s-.07.0677-.0888.0881c-.0959.1085-.1406.1771-.1337.2066a.9074.9074,0,0,0,.193.1975q.3486.31.526.11a.2414.2414,0,0,0,.025-.3086A1.27,1.27,0,0,0,10.7635,40.8537Z"/><path class="cls-1" d="M40.42,40.8529a3.0121,3.0121,0,0,0-.38-.1884c.0221.0668.0812.2023.1762.4054a2.2685,2.2685,0,0,0,.191.3676q.0273.0281.1237-.059c.0347-.0291.0885-.079.1627-.15.0686-.0664.099-.1115.09-.135a.0779.0779,0,0,0-.0178-.0252A2.1441,2.1441,0,0,0,40.42,40.8529Z"/><path class="cls-1" d="M30.2734,3.3168a1.9074,1.9074,0,0,0,.2639.0879q.46.1182.5543-.2476a.39.39,0,0,0-.0768-.3984.8738.8738,0,0,0-.3885-.18q-.2-.051-.2279.0066a3.6985,3.6985,0,0,0-.1185.4088c-.0082.0323-.02.08-.0347.1435s-.026.1106-.0338.1414C30.21,3.2856,30.23,3.2984,30.2734,3.3168Z"/><path class="cls-1" d="M25,0A25,25,0,1,0,50,25,25,25,0,0,0,25,0ZM36.6237,7.7565q.1466-.1884.4544-.5553t.454-.5551q.153-.1974.444-.602t.4423-.6c.0187-.0239.0464-.0254.0833-.0041q.1321.0807.41.2962.528.41.6719.5464a1.6549,1.6549,0,0,1,.4761.6995,1.3186,1.3186,0,0,1,.0061.6968,1.6668,1.6668,0,0,1-1.3021,1.2559A1.3353,1.3353,0,0,1,37.69,8.6584q-.1022-.0738-.55-.421-.0846-.0654-.2491-.2014t-.2487-.2016C36.6094,7.8088,36.6033,7.7828,36.6237,7.7565ZM33.099,5.8483q.1061-.2187.3433-.6452t.3437-.6449q.1081-.2228.3794-.8412.07-.1589.2048-.477l.0113-.0282c.0122-.0312.0356-.0382.0708-.0213q.1444.07.4305.2188t.4306.2187q.1425.0694.4331.2008t.4336.2007c.0673.033.0942.0773.08.133-.0078.0332-.0421.1289-.102.2872s-.0977.2536-.1137.2862a.0391.0391,0,0,1-.0586.0219c-.0078-.0037-.0213-.0111-.04-.0219q-.498-.2949-.9119-.4961c-.069-.0334-.1193-.0378-.1506-.0128a.6787.6787,0,0,0-.0829.1456.3061.3061,0,0,0-.0464.1947c.01.0356.0464.0683.1089.0987.013.0063.0391.0176.0777.0341s.07.0306.0951.0425q.246.12.5043.2281l.112.0423a1.0732,1.0732,0,0,1,.1094.0434.0453.0453,0,0,1,.0251.0677,2.9674,2.9674,0,0,0-.18.2817,3.4447,3.4447,0,0,0-.1675.3047c-.0126.026-.0378.03-.0756.0115l-.1662-.1048q-.1054-.0657-.5017-.2583l-.2071-.1q-.08-.0389-.1124-.0065c-.0047.006-.0247.046-.0607.12a.6345.6345,0,0,0-.0734.2007q-.0033.09.2071.2092l.2851.1385q.1035.05.3164.1306t.3142.13c.0287.0139.0317.0445.0092.0911a2.8161,2.8161,0,0,1-.1832.2924,1.3019,1.3019,0,0,1-.2036.2606.0807.0807,0,0,1-.0824.0058.5011.5011,0,0,1-.0556-.0342q-.1335-.089-.8225-.4234-.15-.0729-.4457-.219t-.4444-.2181C33.0929,5.9151,33.0807,5.8861,33.099,5.8483ZM29.1975,3.89q.1419-.4609.2018-.6943.2279-.8892.316-1.3975l.0052-.03c.0048-.0243.0308-.0347.0785-.0314s.2639.05.6489.14q.3906.0912.6224.1506a1.352,1.352,0,0,1,.7261.4171.8379.8379,0,0,1,.1624.7921,1.18,1.18,0,0,1-.214.467,1.0308,1.0308,0,0,1-.4171.2717c-.0378.0141-.0595.0311-.0647.0508q.0008-.0023.1215.5933a3.92,3.92,0,0,1,.1064.65c-.0026.01-.0182.0132-.0473.01a3.7476,3.7476,0,0,1-.405-.09A3.6044,3.6044,0,0,1,30.668,5.08a.2067.2067,0,0,1-.05-.0239.0969.0969,0,0,1-.0187-.05q-.01-.09-.03-.2676-.0279-.231-.0976-.6857c-.0105-.059-.06-.102-.1434-.1311-.0139-.002-.0883-.02-.2255-.0553-.0209-.0055-.04.0275-.0591.0989q-.0364.1432-.0829.4336c-.0312.1936-.0586.3381-.0833.4334-.0061.0239-.0161.0362-.03.0373l-.06-.011q-.1263-.0236-.3889-.0908a2.9205,2.9205,0,0,1-.3585-.1052.0663.0663,0,0,1-.0443-.081Q29.0558,4.3512,29.1975,3.89ZM25.092,3.4876q.0406-.4813.053-.722.0143-.2861.01-.7209-.005-.6716-.0048-.7216l-.0006-.026q0-.0543.0677-.051.16.0081.4839.031t.4863.0313q.1735.0087.5226,0t.5226,0c.072.0037.1111.0354.1167.0949q-.0045.0935-.0052.28c.0009.0319.0074.0938.0187.1856a1.1073,1.1073,0,0,1,.0121.1853c0,.0161-.0156.0232-.0442.0217q-.1627-.0081-.4918-.0531t-.4939-.0532a.997.997,0,0,0-.2435.0028q-.082.0328-.0907.204-.01.2058.0922.2394a.5969.5969,0,0,0,.1317.0175q.15.0075.4484.0063t.4483.0065q.0717.0036.0521.385a1.602,1.602,0,0,1-.0434.3846.0576.0576,0,0,1-.06.0362.75.75,0,0,0-.1359-.0221q-.23-.0336-.7011-.0573-.1518-.0078-.1713-.0065c-.0742.0078-.1128.0369-.1152.0874q-.0156.3079-.01.71.0033.3633.0052.324c-.0017.0378-.0484.0571-.14.0582a1.88,1.88,0,0,0-.1927-.012,2.8977,2.8977,0,0,1-.5211-.0547c-.0412-.0121-.0612-.0355-.0594-.07Q25.0514,3.9691,25.092,3.4876ZM19.8941,1.79q.1243-.02.3038-.0659.042-.0111.1647-.0547a1.0231,1.0231,0,0,1,.1663-.0463c.0171-.0028.0475.0174.0909.06l.9737.9678q.131.131.3926.3813.0642.058.1029.0519c.0184-.003.0189-.06.0011-.1717q-.0359-.2249-.1324-.6731t-.1328-.6756c-.0085-.0527.0024-.0816.0323-.0864q.1286-.02.3863-.0725t.3861-.0724q.0407-.0066.0514.06.0387.244.0963.7372t.097.7393l.2249,1.4123c.0061.0387-.0115.0612-.053.068q-.0514.0081-.1547.0288t-.1547.0291c-.0371.0061-.0934.012-.1684.018s-.1316.0122-.1687.0183q-.0384.0059-.1033-.0562-.1875-.1833-.8411-.811-.18-.1758-.5436-.5154a.09.09,0,0,0-.0363-.0207.0606.0606,0,0,0-.0095.05q.0393.2482.1326.7435t.1326.7437q.012.0749-.0458.0842l-.7415.118q-.0623.01-.0727-.0566-.0369-.2314-.0888-.7023t-.0892-.7044q-.039-.2464-.1376-.734t-.1376-.7317Q19.81,1.8032,19.8941,1.79ZM15.7348,3.0731c.0363-.0145.0935-.0338.1721-.0577s.1365-.0432.174-.0584.0888-.0384.1574-.0716.12-.0566.1549-.0707c.0256-.01.058.0024.0975.0379q.1836.1716,1.16,1.2171.9811,1.0527,1.0033,1.1069c.01.0244,0,.0478-.03.0708a2.4819,2.4819,0,0,1-.3678.1671,2.72,2.72,0,0,1-.3768.133.1164.1164,0,0,1-.123-.0555q-.1855-.2624-.2318-.267a4.8353,4.8353,0,0,0-.5449.2034,1.6933,1.6933,0,0,0-.357.1651.5917.5917,0,0,0,.01.2461c.02.1218.013.1945-.02.2186a3.6828,3.6828,0,0,1-.4523.2011q-.3079.1241-.3316.0658-.0212-.0525-.0638-1.47-.0449-1.5333-.0562-1.6832C15.7049,3.115,15.7133,3.0818,15.7348,3.0731ZM10.0662,6.4785q.0974-.069.288-.2129t.2882-.2129c.0128-.0091.0488.0029.1074.0356l1.32.77q.1364.0765.1736.05c.013-.0092.0093-.0732-.0106-.1919q-.084-.4987-.2628-1.4963-.0189-.09.0167-.1154c.0343-.0241.0872-.0591.1588-.1042s.125-.08.1606-.1057c.03-.0208.0725-.0556.1294-.1046s.1-.0838.1293-.1046c.0354-.0252.0632-.0234.0831.005q.1478.2089.4265.6354t.4264.6352q.1364.1933.4253.5684t.4243.5664a.0577.0577,0,0,1-.0126.0913l-.6274.4434q-.0514.0364-.0952-.0258-.1263-.1788-.3662-.5463t-.3661-.5464c-.0243-.0343-.0425-.0488-.0549-.0436a6.2322,6.2322,0,0,0,.15.7153q.0952.4059.1894.81a.0906.0906,0,0,1-.0106.079.7686.7686,0,0,1-.07.0519q-.0924.0651-.1349.0423Q12.7189,8.04,12.3,7.778q-.4446-.2757-.6519-.3924a.0692.0692,0,0,0-.03-.0082.103.103,0,0,0,.024.06q.1229.1738.377.515t.3772.5147c.029.0413.0271.0738-.0059.097l-.592.4184c-.0237.0167-.0408.023-.0514.0191a.09.09,0,0,1-.0363-.0343q-.1364-.1929-.3915-.5935T10.9277,7.78q-.1455-.2058-.5625-.7585-.1057-.1458-.3253-.4264l-.0232-.0289C9.9989,6.5438,10.0154,6.5143,10.0662,6.4785Zm1.5675,35.4968a.5673.5673,0,0,1-.2387.1506,1.1225,1.1225,0,0,1-.2457.0547.506.506,0,0,1-.1148.0082c-.0069.0078-.0032.0321.01.0734a.587.587,0,0,1-.0048.3645.853.853,0,0,1-.1807.3212.924.924,0,0,1-.6263.329,1.3392,1.3392,0,0,1-.9466-.4379c-.027-.0239-.0654-.0591-.1153-.1051-.0518-.0464-.09-.08-.1152-.1024a7.3531,7.3531,0,0,1-.69-.6571.0668.0668,0,0,1-.0024-.0925q.1542-.1731.4874-.5073t.4887-.5091q.1672-.1882.6092-.7249.1133-.1374.3365-.4149l.0187-.0239q.0257-.0325.0842.0078t.3813.3273q.5175.46.6022.5412a1.6808,1.6808,0,0,1,.4735.6528A.7523.7523,0,0,1,11.6337,41.9753Zm3.306,2.9461q-.21,1.4239-.2387,1.4749c-.0128.0225-.0376.03-.074.02a2.4342,2.4342,0,0,1-.36-.1832,2.78,2.78,0,0,1-.3394-.2109.1177.1177,0,0,1-.0332-.1311.8327.8327,0,0,0,.064-.3477,4.8713,4.8713,0,0,0-.4991-.299,1.7123,1.7123,0,0,0-.3518-.1758.6019.6019,0,0,0-.1857.1619q-.1248.1367-.183.1211a3.6768,3.6768,0,0,1-.4394-.2283q-.29-.1628-.2585-.2179.028-.0487,1.1085-.9666,1.17-.9921,1.28-1.0946c.0421-.0395.0733-.0534.0935-.0421.0341.02.0848.0521.1525.0985s.119.08.1543.1.0853.0451.1541.0781.1194.0586.1522.0768c.0238.0135.034.0469.0308.1Q15.1475,43.5062,14.94,44.9214ZM19.8722,46.07a1.1747,1.1747,0,0,1-.2361.4561,1.0273,1.0273,0,0,1-.4295.2513c-.0386.0126-.061.0283-.0668.0478q.0006-.0025.0924.5985a3.9338,3.9338,0,0,1,.0751.6545c-.003.01-.0189.0122-.048.0078a6.2009,6.2009,0,0,1-.7652-.2361.2079.2079,0,0,1-.0486-.0264.098.098,0,0,1-.0162-.05c-.0042-.06-.01-.15-.017-.2687q-.0169-.2323-.0642-.69c-.008-.0595-.0552-.1049-.1375-.1381-.014-.0027-.0872-.0245-.2221-.0659-.0206-.0065-.0419.0256-.0638.0959-.0289.0942-.0636.237-.1037.4293s-.0751.3346-.104.4288c-.0074.0234-.0178.0356-.0315.0356l-.0594-.0135q-.125-.03-.3841-.1094a2.8641,2.8641,0,0,1-.3529-.1228.0659.0659,0,0,1-.04-.0829q.07-.2279.2341-.6814t.2346-.6841q.2709-.8769.3828-1.3806l.007-.03q.0087-.0358.08-.0274t.6413.1706q.3861.11.6142.1805a1.3543,1.3543,0,0,1,.7055.4514A.8369.8369,0,0,1,19.8722,46.07Zm4.5369,2.7144a2.5018,2.5018,0,0,1-.4037-.0169,2.6972,2.6972,0,0,1-.3962-.0517.1161.1161,0,0,1-.0847-.105.83.83,0,0,0-.0861-.3429,4.8082,4.8082,0,0,0-.5782-.0647,1.7149,1.7149,0,0,0-.393-.0139.5957.5957,0,0,0-.102.224c-.0375.1176-.0764.18-.1161.1862a3.644,3.644,0,0,1-.4945-.0247q-.3308-.0287-.3253-.0912.0045-.056.6069-1.34.6523-1.3881.71-1.5269c.0219-.0534.0445-.079.0675-.0773.0391.0035.099.0121.18.0265s.1415.023.1818.0264.0964.0057.1726.007.1328.0039.17.0069q.0411.0039.07.0782.0862.2356.485,1.61.4,1.3821.395,1.4405C24.4657,48.7609,24.446,48.7773,24.4091,48.7843Zm4.6473-.6367a1.3405,1.3405,0,0,1-.9531.424c-.0356.0048-.0877.01-.1554.0178s-.12.0152-.1528.0191a7.4152,7.4152,0,0,1-.9487.0872c-.043-.0034-.0669-.023-.0712-.059-.0191-.1536-.04-.3871-.0612-.7009s-.0421-.5482-.0614-.7032q-.0316-.2493-.1446-.9353-.0286-.1758-.09-.5269l-.006-.0295c-.0048-.0274.0156-.0465.0616-.0582s.2118-.0356.4974-.0716q.6863-.0865.8038-.0972a1.6832,1.6832,0,0,1,.803.0733.7524.7524,0,0,1,.421.6493.5688.5688,0,0,1-.0434.2787,1.1436,1.1436,0,0,1-.1207.2209.5235.5235,0,0,1-.0694.092c.0008.01.0217.0235.0616.04a.5862.5862,0,0,1,.2717.2435.8411.8411,0,0,1,.1224.3476A.9239.9239,0,0,1,29.0564,48.1476Zm5.2509-1.2453a2.5394,2.5394,0,0,1-.375.1511,2.7584,2.7584,0,0,1-.382.1167.1166.1166,0,0,1-.1206-.0612c-.1159-.18-.1892-.2721-.22-.2764a4.8066,4.8066,0,0,0-.5533.18,1.699,1.699,0,0,0-.3638.15.6041.6041,0,0,0,0,.2461c.0139.1224.0044.1949-.029.2174a3.61,3.61,0,0,1-.46.1815c-.2088.0742-.32.0911-.3342.0516q-.0189-.0534-.0005-1.4709.0215-1.5339.0165-1.684c-.0022-.0578.0078-.09.0295-.0981.0369-.0131.0951-.0295.1745-.05s.1385-.0378.1767-.0513.09-.0347.16-.0646.1224-.0512.158-.0638c.026-.01.0577.0047.0955.0421q.1764.179,1.1063,1.2656.9355,1.0944.9549,1.1493C34.349,46.8576,34.3381,46.8806,34.3073,46.9023Zm4.296-2.3906a3.87,3.87,0,0,1-.3455.2288,3.6331,3.6331,0,0,1-.3355.1922.2481.2481,0,0,1-.0521.02.0964.0964,0,0,1-.0486-.0213q-.0723-.0547-.2135-.1636-.1863-.14-.5621-.4054a.1873.1873,0,0,0-.1939.0129c-.0111.0087-.0756.05-.1958.1238-.0187.0113-.0083.0486.03.1111q.0776.1257.2548.3607t.2548.36c.013.0209.0152.0369.0061.0473l-.0491.0356q-.1048.0748-.3351.2175a2.9357,2.9357,0,0,1-.3242.1853.0663.0663,0,0,1-.089-.0243q-.1256-.2031-.36-.6246t-.3606-.6267q-.4831-.7806-.7887-1.1962L34.878,43.32c-.0139-.02-.0034-.0465.0322-.0786s.2187-.1558.55-.3711q.3372-.2181.54-.3437a1.357,1.357,0,0,1,.8043-.2348.837.837,0,0,1,.6831.4323,1.1714,1.1714,0,0,1,.1884.4778,1.0315,1.0315,0,0,1-.0929.4892c-.0161.0369-.0191.0642-.0082.0816q-.0014-.002.5117.3238a4.0068,4.0068,0,0,1,.5425.3737C38.6341,44.4787,38.6254,44.4926,38.6033,44.5117Zm3.9141-3.4127a2.4589,2.4589,0,0,1-.2787.2925,2.692,2.692,0,0,1-.3.2643.1172.1172,0,0,1-.135-.0056q-.27-.1738-.3147-.1611a4.8461,4.8461,0,0,0-.43.3924,1.723,1.723,0,0,0-.27.286.5941.5941,0,0,0,.1016.2249q.0951.1581.0634.21a3.6439,3.6439,0,0,1-.3442.3559q-.24.23-.283.1849-.0391-.041-.6081-1.3394-.6146-1.4057-.681-1.54c-.0251-.0516-.03-.0855-.013-.1015.0282-.0274.0742-.0664.138-.1181s.11-.0911.14-.1194.0677-.0685.1189-.125.09-.0972.1176-.1232c.02-.0191.0547-.02.1042-.0013q.2351.09,1.5308.6957,1.3033.61,1.3442.6524C42.5369,41.0412,42.5365,41.0668,42.5174,41.099ZM25,44.4444A19.4444,19.4444,0,1,1,44.4444,25,19.4443,19.4443,0,0,1,25,44.4444Z"/><path class="cls-1" d="M36.4891,43.0734a.8688.8688,0,0,0-.3993.1553q-.175.1081-.1532.1689a3.8669,3.8669,0,0,0,.2127.3685c.0174.0282.0438.07.0794.1241s.0617.0955.0786.1228q.0053.0092.07-.0182a1.9091,1.9091,0,0,0,.2465-.1293q.4044-.25.2058-.5712A.39.39,0,0,0,36.4891,43.0734Z"/><path class="cls-1" d="M32.4983,45.8112a3.0188,3.0188,0,0,0-.2683-.3286c-.0073.07-.0095.2175-.0069.4423a2.2458,2.2458,0,0,0,.0221.4132c.0087.0247.0543.0239.1372-.0022.0434-.0125.1133-.0356.21-.07.09-.0322.1359-.06.1381-.0855a.0963.0963,0,0,0-.0061-.03A2.1622,2.1622,0,0,0,32.4983,45.8112Z"/><path class="cls-1" d="M37.95,8.0054a.7375.7375,0,0,0,.6193.165.9279.9279,0,0,0,.5412-.3683.8384.8384,0,0,0,.1941-.6077.7583.7583,0,0,0-.3152-.5494q-.2643-.2052-.3185-.1348-.0788.1012-.24.3016t-.24.3017q-.0774.1-.2287.3019t-.23.3036C37.6944,7.768,37.7665,7.8635,37.95,8.0054Z"/></svg>